<svg width="134" height="28" viewBox="0 0 134 28" fill="none" xmlns="http://www.w3.org/2000/svg">
<path d="M39.2594 28V7.52182H42.9994V9.50112C44.0308 7.97613 45.5141 7.2124 47.4516 7.2124C49.3892 7.2124 51.0738 7.91228 52.2599 9.31449C53.446 10.7167 54.0379 12.5413 54.0379 14.7858C54.0379 17.0303 53.446 18.8525 52.2599 20.2424C51.0738 21.6348 49.4727 22.3298 47.4516 22.3298C45.5558 22.3298 44.0922 21.6078 43.0608 20.1663V27.9975H39.2594V28ZM44.3304 18.2827C44.9689 18.7788 45.7228 19.0244 46.5872 19.0244C47.6579 19.0244 48.5395 18.6437 49.2296 17.88C49.9196 17.1187 50.2659 16.0873 50.2659 14.7883C50.2659 13.4892 49.9196 12.4603 49.2296 11.6965C48.5395 10.9353 47.6579 10.5522 46.5872 10.5522C45.7228 10.5522 44.9689 10.7953 44.3304 11.2791C43.692 11.7628 43.2696 12.4701 43.0633 13.3959V16.1487C43.2696 17.0966 43.692 17.8088 44.3304 18.2827Z" fill="#1E2457"/>
<path d="M55.4352 7.52173H59.2366V15.8687C59.2366 16.9811 59.4625 17.7964 59.9169 18.3121C60.3712 18.8278 61.0612 19.0857 61.9895 19.0857C62.6893 19.0857 63.3352 18.8597 63.9221 18.4054C64.509 17.9536 64.8848 17.3028 65.0517 16.4581V7.52173H68.8556V22.0202H65.0517V20.0409C64.0203 21.5659 62.5273 22.3297 60.5701 22.3297C58.9198 22.3297 57.6527 21.8655 56.7662 20.9397C55.8797 20.0115 55.4376 18.7149 55.4376 17.045V7.52173H55.4352Z" fill="#1E2457"/>
<path d="M74.7689 22.0228H70.9355V0H74.7689V22.0228Z" fill="#1E2457"/>
<path d="M78.2364 9.34641C79.6165 7.92456 81.3699 7.2124 83.4916 7.2124C85.6133 7.2124 87.2734 7.90737 88.5921 9.29976C89.9108 10.6897 90.5714 12.5413 90.5714 14.8497C90.5714 14.9111 90.5665 15.024 90.5567 15.1885C90.5468 15.3531 90.5419 15.4783 90.5419 15.5594H79.8154C79.9185 16.6939 80.3311 17.5902 81.0531 18.2484C81.775 18.9089 82.6812 19.238 83.774 19.238C85.2376 19.238 86.463 18.6315 87.4526 17.4134L89.6775 19.2675C88.1329 21.3082 86.0701 22.3273 83.494 22.3273C81.3502 22.3273 79.587 21.6225 78.2069 20.2105C76.8268 18.7984 76.1343 17.0009 76.1343 14.8153C76.1343 12.6297 76.8342 10.7658 78.2364 9.34396V9.34641ZM79.8743 13.4278H86.9541C86.8092 12.335 86.4286 11.5001 85.8098 10.923C85.1909 10.3459 84.4297 10.0586 83.5235 10.0586C82.6173 10.0586 81.8536 10.3533 81.1734 10.9402C80.4932 11.5271 80.061 12.3571 79.8743 13.4278Z" fill="#1E2457"/>
<path d="M95.2864 7.52188V9.5945C96.3178 8.02776 97.8723 7.24438 99.9547 7.24438C101.686 7.24438 103.037 7.71834 104.004 8.66624C104.972 9.61414 105.458 10.9844 105.458 12.7771V22.0204H101.657V13.7029C101.657 11.5591 100.728 10.4884 98.8742 10.4884C98.1743 10.4884 97.5285 10.6947 96.9415 11.1072C96.3546 11.5198 95.9372 12.1386 95.6891 12.9613V22.0204H91.8877V7.52188H95.2888H95.2864Z" fill="#1E2457"/>
<path d="M108.947 9.34641C110.35 7.92456 112.172 7.2124 114.419 7.2124C116.253 7.2124 117.849 7.706 119.21 8.69565L117.356 11.3233C116.553 10.7879 115.625 10.5202 114.574 10.5202C113.4 10.5202 112.435 10.9058 111.683 11.6793C110.932 12.4529 110.556 13.4867 110.556 14.7858C110.556 16.0849 110.932 17.1138 111.683 17.8775C112.435 18.6413 113.4 19.0219 114.574 19.0219C115.666 19.0219 116.592 18.7542 117.356 18.2189L119.21 20.8465C117.911 21.8362 116.315 22.3298 114.419 22.3298C112.194 22.3298 110.369 21.6127 108.947 20.181C107.526 18.7493 106.813 16.9493 106.813 14.7858C106.813 12.6223 107.526 10.7879 108.947 9.34396V9.34641Z" fill="#1E2457"/>
<path d="M121.221 9.34641C122.601 7.92456 124.355 7.2124 126.476 7.2124C128.598 7.2124 130.258 7.90737 131.577 9.29976C132.896 10.6897 133.556 12.5413 133.556 14.8497C133.556 14.9111 133.551 15.024 133.542 15.1885C133.532 15.3531 133.527 15.4783 133.527 15.5594H122.8C122.903 16.6939 123.316 17.5902 124.038 18.2484C124.76 18.9089 125.666 19.238 126.759 19.238C128.222 19.238 129.448 18.6315 130.438 17.4134L132.662 19.2675C131.115 21.3082 129.055 22.3273 126.479 22.3273C124.335 22.3273 122.572 21.6225 121.192 20.2105C119.812 18.7984 119.119 17.0009 119.119 14.8153C119.119 12.6297 119.819 10.7658 121.221 9.34396V9.34641ZM122.859 13.4278H129.939C129.794 12.335 129.413 11.5001 128.795 10.923C128.176 10.3459 127.415 10.0586 126.506 10.0586C125.597 10.0586 124.836 10.3533 124.156 10.9402C123.476 11.5271 123.043 12.3571 122.857 13.4278H122.859Z" fill="#1E2457"/>
<path d="M14.3683 15.8835L8.7865 24.0684H13.0545L16.4483 19.017L14.3683 15.8835Z" fill="url(#paint0_linear_8_743)"/>
<path d="M34.9226 7.17079C33.0588 5.25533 30.7037 4.29761 27.8576 4.29761C24.783 4.29761 21.8263 5.51809 20.0386 8.09413C19.405 9.0052 18.8181 9.95311 18.2017 10.8765L14.9283 6.12957C14.2726 5.17921 13.1896 4.60948 12.0354 4.60948H9.4643H0V24.0734H4.33187V16.4779H8.06455L10.3803 13.089H4.33187V8.28568H10.0979C11.2619 8.28568 12.3498 8.86277 13.0054 9.82541L15.7018 13.7914C15.7018 13.7914 19.6678 20.1738 20.9472 21.5023C22.8135 23.4374 25.1735 24.3927 27.8551 24.3927C30.7013 24.3927 33.0563 23.4349 34.9202 21.5195C36.7816 19.604 37.7148 17.2146 37.7148 14.3464C37.7148 11.4781 36.7841 9.0887 34.9202 7.17324L34.9226 7.17079ZM32.1133 18.9901C30.9935 20.2253 29.5741 20.8417 27.86 20.8417C26.5217 20.8417 25.2029 20.3923 24.1617 19.5451C23.2457 18.801 22.6932 17.7868 22.0916 16.7972C21.5169 15.8542 20.9226 14.921 20.3677 13.9657C20.8318 13.3223 21.2959 12.6789 21.7576 12.0355C22.4918 11.0164 23.1844 9.96293 24.1519 9.14272C25.1956 8.25867 26.4996 7.8412 27.8625 7.8412C29.579 7.8412 30.996 8.46003 32.1158 9.6928C33.2356 10.928 33.7955 12.4751 33.7955 14.339C33.7955 16.2029 33.2356 17.75 32.1158 18.9852L32.1133 18.9901Z" fill="url(#paint1_linear_8_743)"/>
<defs>
<linearGradient id="paint0_linear_8_743" x1="10.3802" y1="24.0684" x2="16.4485" y2="18.0054" gradientUnits="userSpaceOnUse">
<stop stop-color="#714EFF"/>
<stop offset="1" stop-color="#534FFF"/>
</linearGradient>
<linearGradient id="paint1_linear_8_743" x1="3.38541" y1="17.6271" x2="33.9505" y2="24.3927" gradientUnits="userSpaceOnUse">
<stop stop-color="#714EFF"/>
<stop offset="1" stop-color="#524EFF"/>
</linearGradient>
</defs>
</svg>
