<svg width="16" height="17" viewBox="0 0 16 17" fill="none" xmlns="http://www.w3.org/2000/svg">
<path d="M8.66733 13.792C11.2982 13.4639 13.334 11.2197 13.334 8.49992C13.334 5.5544 10.9462 3.16659 8.00067 3.16659C5.05513 3.16659 2.66732 5.5544 2.66732 8.49992C2.66732 11.2197 4.70311 13.4639 7.334 13.792V9.83325H6.00065V8.49992H7.334V7.39712C7.334 6.50562 7.4268 6.18233 7.60113 5.85641C7.7754 5.53048 8.0312 5.27469 8.35713 5.10039C8.61226 4.96395 8.92873 4.8816 9.4818 4.84628C9.70126 4.83226 9.9854 4.85014 10.334 4.89992V6.16659H10.0007C9.38913 6.16659 9.1368 6.19547 8.98593 6.27614C8.8924 6.32618 8.82693 6.39164 8.77686 6.48521C8.6962 6.63604 8.66733 6.78561 8.66733 7.39712V8.49992H10.334L10.0007 9.83325H8.66733V13.792ZM8.00067 15.1666C4.31875 15.1666 1.33398 12.1818 1.33398 8.49992C1.33398 4.81802 4.31875 1.83325 8.00067 1.83325C11.6825 1.83325 14.6673 4.81802 14.6673 8.49992C14.6673 12.1818 11.6825 15.1666 8.00067 15.1666Z" fill="#3C4565" fill-opacity="0.5"/>
</svg>
