<svg width="40" height="40" viewBox="0 0 40 40" fill="none" xmlns="http://www.w3.org/2000/svg">
<path d="M28.7745 18.6964C28.7745 26.3221 22.5577 32.3787 15.0921 32.3787C11.6346 32.3787 8.49221 31.0981 6.07889 28.9901C3.21236 26.4881 1.3999 22.804 1.3999 18.6964C1.3999 11.2061 7.46375 5.00415 15.0921 5.00415C22.6636 5.00416 28.7745 11.1559 28.7745 18.6964Z" fill="white"/>
<path d="M15.0922 32.9785C11.6364 32.9785 8.29537 31.7223 5.68442 29.4418C2.58052 26.7324 0.800049 22.816 0.800049 18.6965C0.800049 10.816 7.21138 4.4043 15.0922 4.4043C22.9676 4.4043 29.3747 10.816 29.3747 18.6965C29.3747 26.5715 22.9676 32.9785 15.0922 32.9785ZM15.0922 5.6043C7.8731 5.6043 2.00006 11.4777 2.00006 18.6965C2.00006 22.4691 3.63053 26.0566 6.4735 28.5379C8.86607 30.6277 11.9266 31.7785 15.0922 31.7785C22.3059 31.7785 28.1747 25.9098 28.1747 18.6965C28.1747 11.4777 22.3059 5.6043 15.0922 5.6043Z" fill="#5A3DF9"/>
<path d="M28.7745 18.6964C28.7745 26.3221 22.5577 32.3787 15.0921 32.3787C11.6346 32.3787 8.49221 31.0981 6.07889 28.9901C3.21236 26.4881 1.3999 22.804 1.3999 18.6964C1.3999 11.2061 7.46375 5.00415 15.0921 5.00415C22.6636 5.00416 28.7745 11.1559 28.7745 18.6964Z" fill="white"/>
<path d="M15.0922 32.9785C11.6364 32.9785 8.29537 31.7223 5.68442 29.4418C2.58052 26.7324 0.800049 22.816 0.800049 18.6965C0.800049 10.816 7.21138 4.4043 15.0922 4.4043C22.9676 4.4043 29.3747 10.816 29.3747 18.6965C29.3747 26.5715 22.9676 32.9785 15.0922 32.9785ZM15.0922 5.6043C7.8731 5.6043 2.00006 11.4777 2.00006 18.6965C2.00006 22.4691 3.63053 26.0566 6.4735 28.5379C8.86607 30.6277 11.9266 31.7785 15.0922 31.7785C22.3059 31.7785 28.1747 25.9098 28.1747 18.6965C28.1747 11.4777 22.3059 5.6043 15.0922 5.6043Z" fill="#5A3DF9"/>
<path d="M24.0955 28.9901C21.6919 31.0981 18.5398 32.3787 15.0921 32.3787C11.6346 32.3787 8.49219 31.0981 6.07886 28.9901C8.49218 26.8821 11.6346 25.6016 15.0921 25.6016C18.5398 25.6016 21.6919 26.8821 24.0955 28.9901Z" fill="white"/>
<path d="M15.0923 32.9785C11.6364 32.9785 8.29542 31.7223 5.68448 29.4418C5.554 29.3285 5.479 29.1637 5.479 28.9902C5.479 28.8168 5.554 28.652 5.68448 28.5387C8.29541 26.2582 11.6364 25.002 15.0923 25.002C18.5521 25.002 21.8899 26.2582 24.4911 28.5395C24.6208 28.6527 24.6954 28.8176 24.6954 28.9902C24.6954 29.1629 24.6208 29.3277 24.4911 29.441C21.8899 31.7223 18.5521 32.9785 15.0923 32.9785ZM7.02003 28.9902C9.32316 30.7934 12.163 31.7785 15.0923 31.7785C18.0251 31.7785 20.8618 30.7934 23.1564 28.9902C20.8618 27.1871 18.0251 26.202 15.0923 26.202C12.163 26.202 9.32316 27.1871 7.02003 28.9902Z" fill="#5A3DF9"/>
<path d="M24.0955 8.39273C21.6919 10.5106 18.5398 11.7813 15.0921 11.7813C11.6346 11.7813 8.49219 10.5106 6.07886 8.39273C8.49218 6.2749 11.6346 5.00415 15.0921 5.00415C18.5398 5.00416 21.6919 6.27491 24.0955 8.39273Z" fill="white"/>
<path d="M15.0923 12.3816C11.6243 12.3816 8.28291 11.1254 5.6833 8.84337C5.55361 8.7293 5.479 8.56524 5.479 8.39258C5.479 8.21993 5.55361 8.05586 5.6833 7.9418C8.28252 5.66055 11.6239 4.4043 15.0923 4.4043C18.5645 4.4043 21.9028 5.66054 24.4919 7.94258C24.6212 8.05664 24.6954 8.21992 24.6954 8.39258C24.6954 8.56523 24.6212 8.72851 24.4919 8.84258C21.9024 11.1246 18.5642 12.3816 15.0923 12.3816ZM7.01768 8.39258C9.31182 10.1957 12.1524 11.1816 15.0923 11.1816C18.0353 11.1816 20.8731 10.1957 23.1591 8.39258C20.8735 6.58946 18.036 5.6043 15.0923 5.6043C12.1521 5.6043 9.31143 6.58946 7.01768 8.39258Z" fill="#5A3DF9"/>
<path d="M15.0906 32.98C10.6199 32.98 7.11792 26.7042 7.11792 18.6925C7.11792 10.6815 10.6199 4.40576 15.0906 4.40576C19.5609 4.40576 23.0628 10.6815 23.0628 18.6925C23.0628 26.7042 19.5609 32.98 15.0906 32.98ZM15.0906 5.60576C11.4195 5.60576 8.31792 11.5987 8.31792 18.6925C8.31792 25.787 11.4195 31.78 15.0906 31.78C18.7617 31.78 21.8628 25.787 21.8628 18.6925C21.8628 11.5987 18.7617 5.60576 15.0906 5.60576Z" fill="#5A3DF9"/>
<path d="M15.0907 32.98C14.7595 32.98 14.4907 32.7112 14.4907 32.38V5.00576C14.4907 4.67451 14.7595 4.40576 15.0907 4.40576C15.422 4.40576 15.6907 4.67451 15.6907 5.00576V32.38C15.6907 32.7112 15.422 32.98 15.0907 32.98Z" fill="#5A3DF9"/>
<path d="M28.7773 19.2925H1.40347C1.07222 19.2925 0.803467 19.0238 0.803467 18.6925C0.803467 18.3613 1.07222 18.0925 1.40347 18.0925H28.7773C29.1085 18.0925 29.3773 18.3613 29.3773 18.6925C29.3773 19.0238 29.1085 19.2925 28.7773 19.2925Z" fill="#5A3DF9"/>
<path d="M37.7677 34.163C36.5229 35.4079 34.4571 35.2325 33.44 33.7955L29.7898 28.6386L32.2433 26.1851L37.4002 29.8353C38.8372 30.8524 39.0126 32.9182 37.7677 34.163Z" fill="white"/>
<path d="M35.7606 35.5956C35.6634 35.5956 35.5661 35.5909 35.468 35.5831C34.4552 35.4972 33.5376 34.9722 32.9501 34.1425L29.3001 28.9854C29.1313 28.7464 29.1591 28.4214 29.3657 28.2143L31.8192 25.7604C32.0259 25.5534 32.3512 25.5253 32.5903 25.6948L37.7469 29.3456C38.5762 29.9331 39.1016 30.8503 39.1876 31.8636C39.2735 32.8761 38.9106 33.8683 38.1919 34.587C37.5427 35.2362 36.67 35.5956 35.7606 35.5956ZM30.5719 28.705L33.9298 33.4487C34.3122 33.9893 34.9098 34.3315 35.5696 34.387C36.2278 34.444 36.8751 34.2065 37.3434 33.7386C37.8114 33.2706 38.0477 32.6245 37.9919 31.9651C37.936 31.305 37.5938 30.7073 37.0536 30.3253L32.3098 26.9667L30.5719 28.705Z" fill="#5A3DF9"/>
<path d="M31.5344 15.9826C28.2384 12.6786 22.8784 12.6786 19.5824 15.9826C16.2864 19.2786 16.2864 24.6306 19.5824 27.9266C22.8704 31.2147 28.2304 31.2306 31.5344 27.9266C34.8384 24.6226 34.8304 19.2786 31.5344 15.9826ZM29.7945 26.1867C27.4325 28.5487 23.6412 28.5059 21.322 26.1867C18.9857 23.8503 18.9857 20.0591 21.322 17.7228C23.6584 15.3779 27.4582 15.3779 29.7945 17.7228C32.1394 20.0677 32.1308 23.8503 29.7945 26.1867Z" fill="white"/>
<path d="M25.5585 30.998C23.2406 30.998 20.9226 30.116 19.1582 28.3512C15.6312 24.8238 15.6312 19.0855 19.1582 15.5582C20.8652 13.8473 23.1382 12.9043 25.5582 12.9043C27.9785 12.9043 30.2515 13.8473 31.9589 15.559C35.4851 19.0855 35.4851 24.8238 31.9585 28.3512C30.1941 30.116 27.8765 30.998 25.5585 30.998ZM25.5582 14.1043C23.4593 14.1043 21.4878 14.9223 20.007 16.4058C16.9476 19.466 16.9476 24.4434 20.0066 27.5027C23.0683 30.5637 28.0492 30.5637 31.1101 27.5027C34.1687 24.4433 34.1687 19.4652 31.1101 16.4066C31.1097 16.4066 31.1097 16.4066 31.1097 16.4058C29.6289 14.9223 27.6574 14.1043 25.5582 14.1043ZM25.5636 28.5418C25.5558 28.5418 25.548 28.5418 25.5402 28.5418C23.7859 28.5363 22.1371 27.8496 20.898 26.6105C19.6546 25.3676 18.9699 23.7137 18.9699 21.9543C18.9699 20.1957 19.6546 18.5418 20.898 17.2988C22.1406 16.0512 23.796 15.3637 25.5582 15.3637C27.3207 15.3637 28.9761 16.0512 30.2195 17.2996C31.4652 18.5449 32.1511 20.1996 32.15 21.9582C32.1488 23.7144 31.4628 25.3668 30.2187 26.6105C28.973 27.8566 27.3203 28.5418 25.5636 28.5418ZM25.5582 16.5637C24.1171 16.5637 22.764 17.1262 21.7472 18.1465C20.73 19.1637 20.1699 20.516 20.1699 21.9543C20.1699 23.3934 20.73 24.7457 21.7464 25.7621C22.7601 26.7762 24.1089 27.3371 25.5445 27.3418H25.5636C27 27.3418 28.3511 26.7816 29.3703 25.7621C30.3878 24.7441 30.9488 23.3934 30.95 21.9574C30.9511 20.5199 30.3898 19.1668 29.3703 18.1473C28.3527 17.1262 26.9996 16.5637 25.5582 16.5637Z" fill="#5A3DF9"/>
<path d="M29.7945 26.1867C27.4325 28.5487 23.6412 28.5058 21.3221 26.1867C18.9857 23.8503 18.9857 20.0591 21.3221 17.7228C23.6584 15.3779 27.4582 15.3779 29.7945 17.7228C32.1394 20.0677 32.1308 23.8503 29.7945 26.1867Z" fill="#4A30D9"/>
<path d="M25.5641 28.5419C25.5559 28.5419 25.5481 28.5419 25.5403 28.5419C23.786 28.5364 22.1372 27.8497 20.8981 26.6107C19.6547 25.3677 18.97 23.7138 18.97 21.9552C18.97 20.1958 19.6547 18.5419 20.8981 17.2989C22.1407 16.0513 23.7961 15.3638 25.5583 15.3638C27.3208 15.3638 28.9762 16.0513 30.2196 17.2997C31.4653 18.545 32.1512 20.1997 32.1501 21.9583C32.1489 23.7145 31.4629 25.3669 30.2188 26.6106C28.9731 27.8567 27.3204 28.5419 25.5641 28.5419ZM25.5582 16.5638C24.1172 16.5638 22.7641 17.1263 21.7473 18.1466C20.7301 19.1638 20.17 20.5161 20.17 21.9552C20.17 23.3935 20.7301 24.7458 21.7465 25.7622C22.7602 26.7763 24.109 27.3372 25.5446 27.3419H25.5637C27 27.3419 28.3512 26.7817 29.3704 25.7622C30.3879 24.7442 30.9489 23.3935 30.95 21.9575C30.9512 20.52 30.3899 19.1669 29.3704 18.1474C28.3528 17.1263 26.9997 16.5638 25.5582 16.5638Z" fill="#4A30D9"/>
<path d="M25.1049 23.3698C25.0285 23.2997 24.9904 23.2154 24.9904 23.1177C24.9904 22.8433 25.0393 22.6016 25.137 22.3936C25.2347 22.1863 25.3491 22.0132 25.4808 21.876C25.612 21.7388 25.7876 21.5814 26.0076 21.404C26.2396 21.2212 26.4107 21.0624 26.5207 20.9274C26.6307 20.7932 26.6859 20.6403 26.6859 20.4695C26.6859 19.8036 26.2489 19.471 25.3752 19.471C25.1612 19.471 24.952 19.4971 24.7477 19.5485C24.543 19.6007 24.361 19.6753 24.2022 19.773C24.1291 19.8222 24.0526 19.8461 23.9732 19.8461C23.8755 19.8461 23.7898 19.8095 23.7167 19.7365C23.6432 19.6634 23.6067 19.5776 23.6067 19.4799C23.6067 19.3397 23.6831 19.2234 23.8356 19.1316C24.0862 18.9728 24.3398 18.8602 24.5963 18.7923C24.8528 18.7252 25.137 18.6917 25.4487 18.6917C26.0718 18.6917 26.5711 18.8475 26.9469 19.1592C27.3228 19.471 27.5103 19.8923 27.5103 20.424C27.5103 20.6619 27.4678 20.8715 27.3821 21.0512C27.2967 21.2317 27.1926 21.3846 27.0707 21.5098C26.9484 21.6351 26.7866 21.7768 26.5848 21.9357C26.3223 22.1437 26.1251 22.3317 25.9938 22.4995C25.8626 22.6673 25.797 22.8738 25.797 23.1177C25.797 23.2154 25.7571 23.2997 25.6776 23.3698C25.5982 23.4399 25.5035 23.4749 25.3935 23.4749C25.2775 23.4749 25.1813 23.4399 25.1049 23.3698ZM24.9949 25.0559C24.8879 24.9493 24.8346 24.8195 24.8346 24.6666C24.8346 24.5197 24.8879 24.3929 24.9949 24.2863C25.1019 24.1797 25.2287 24.126 25.3752 24.126C25.5277 24.126 25.6579 24.1797 25.7649 24.2863C25.8715 24.3929 25.9252 24.5197 25.9252 24.6666C25.9252 24.8195 25.8715 24.9493 25.7649 25.0559C25.6579 25.1633 25.5277 25.2163 25.3752 25.2163C25.2287 25.2163 25.1019 25.1633 24.9949 25.0559Z" fill="white"/>
<path d="M25.3751 25.3763C25.1848 25.3763 25.0188 25.3067 24.8817 25.1692C24.7442 25.031 24.6743 24.8622 24.6743 24.6669C24.6743 24.4763 24.7442 24.3099 24.8821 24.1731C25.1606 23.8942 25.6067 23.9021 25.8782 24.1731C26.0153 24.3099 26.0852 24.4763 26.0852 24.6669C26.0852 24.8622 26.0153 25.031 25.8782 25.1692C25.7407 25.3067 25.5715 25.3763 25.3751 25.3763ZM25.3751 24.2857C25.2719 24.2857 25.1848 24.3224 25.1083 24.3997C25.0305 24.4771 24.9946 24.5614 24.9946 24.6669C24.9946 24.7763 25.0317 24.8661 25.1083 24.9427C25.2645 25.1013 25.504 25.0911 25.6516 24.9427C25.7278 24.8661 25.7649 24.7763 25.7649 24.6669C25.7649 24.5614 25.729 24.4763 25.652 24.3997C25.5751 24.3232 25.4844 24.2857 25.3751 24.2857ZM25.3934 23.6349C25.2372 23.6349 25.104 23.5857 24.9973 23.4888C24.9969 23.488 24.9969 23.488 24.9965 23.488C24.8879 23.388 24.8301 23.2599 24.8301 23.1177C24.8301 22.82 24.8848 22.5536 24.9919 22.3255C25.0977 22.1013 25.2235 21.913 25.3653 21.7653C25.4993 21.6247 25.6766 21.4653 25.9067 21.2794C26.1309 21.1028 26.295 20.9505 26.3969 20.8263C26.4837 20.72 26.5254 20.6036 26.5254 20.4692C26.5254 20.1091 26.4063 19.631 25.3751 19.631C25.1782 19.631 24.9801 19.6552 24.7864 19.7036C24.5989 19.7513 24.4301 19.8208 24.2856 19.9099C24.079 20.0489 23.7891 20.0349 23.6036 19.8497C23.4993 19.7458 23.4465 19.6216 23.4465 19.4802C23.4465 19.3427 23.5 19.1458 23.7536 18.9942C24.0106 18.831 24.2817 18.7099 24.5551 18.6372C24.8254 18.5669 25.1258 18.5317 25.4485 18.5317C26.1071 18.5317 26.6454 18.7013 27.0489 19.0356C27.4614 19.3778 27.6704 19.845 27.6704 20.4239C27.6704 20.6856 27.6219 20.92 27.5266 21.12C27.4336 21.3153 27.3188 21.4841 27.1852 21.6216C27.0563 21.7536 26.8875 21.9013 26.6836 22.0614C26.4325 22.2599 26.2426 22.4411 26.12 22.5981C26.0118 22.7364 25.9571 22.9106 25.9571 23.1177C25.9571 23.2606 25.8969 23.3895 25.7833 23.4903C25.6735 23.5864 25.5426 23.6349 25.3934 23.6349ZM25.2126 23.2521C25.304 23.3349 25.4676 23.3419 25.5719 23.2497C25.6169 23.2099 25.6368 23.1692 25.6368 23.1177C25.6368 22.8372 25.7145 22.5958 25.868 22.4013C26.0063 22.2239 26.2141 22.0247 26.4856 21.8099C26.679 21.6583 26.8372 21.5192 26.9567 21.3981C27.0653 21.2864 27.1598 21.1466 27.2375 20.9825C27.3122 20.8255 27.3501 20.638 27.3501 20.4239C27.3501 19.938 27.1848 19.5646 26.8446 19.2825C26.5001 18.9966 26.0305 18.8521 25.4485 18.8521C25.1528 18.8521 24.8797 18.8841 24.6364 18.9466C24.3954 19.0106 24.1547 19.1185 23.9215 19.2669C23.7825 19.3497 23.7668 19.4286 23.7668 19.4802C23.7668 19.5356 23.786 19.5802 23.8297 19.6231C23.9098 19.7044 24.0157 19.7052 24.1125 19.6403C24.2903 19.5309 24.4887 19.4489 24.7083 19.3935C24.9282 19.3388 25.1524 19.3106 25.3751 19.3106C26.5903 19.3106 26.8458 19.9411 26.8458 20.4692C26.8458 20.6778 26.7778 20.8661 26.6442 21.0286C26.5266 21.1731 26.3504 21.3372 26.1063 21.5294C25.8887 21.7059 25.7211 21.8559 25.5962 21.9864C25.4782 22.1099 25.3723 22.2692 25.2813 22.4614C25.1946 22.6466 25.1505 22.8677 25.1505 23.1177C25.1505 23.1708 25.1696 23.2122 25.2126 23.2521Z" fill="white"/>
</svg>
