<svg width="16" height="17" viewBox="0 0 16 17" fill="none" xmlns="http://www.w3.org/2000/svg">
<path d="M8.00067 6.49992C6.89573 6.49992 6.00065 7.39532 6.00065 8.49992C6.00065 9.60479 6.89607 10.4999 8.00067 10.4999C9.10553 10.4999 10.0007 9.60452 10.0007 8.49992C10.0007 7.39505 9.10527 6.49992 8.00067 6.49992ZM8.00067 5.16659C9.84093 5.16659 11.334 6.65799 11.334 8.49992C11.334 10.3403 9.8426 11.8333 8.00067 11.8333C6.16034 11.8333 4.66732 10.3419 4.66732 8.49992C4.66732 6.65961 6.15872 5.16659 8.00067 5.16659ZM12.334 4.99935C12.334 5.45943 11.9601 5.8327 11.5007 5.8327C11.0406 5.8327 10.6673 5.45885 10.6673 4.99935C10.6673 4.53985 11.0411 4.16659 11.5007 4.16659C11.9595 4.16601 12.334 4.53985 12.334 4.99935ZM8.00067 3.16659C6.351 3.16659 6.08212 3.17095 5.31484 3.20512C4.7921 3.22966 4.44168 3.29997 4.1161 3.42637C3.82677 3.53858 3.61806 3.67257 3.39568 3.89495C3.17244 4.11819 3.03869 4.32634 2.92693 4.61581C2.80024 4.94213 2.72995 5.29199 2.70585 5.81402C2.67135 6.55005 2.66732 6.80729 2.66732 8.49992C2.66732 10.1496 2.67168 10.4185 2.70584 11.1857C2.7304 11.7082 2.8008 12.0591 2.92689 12.3839C3.0394 12.6737 3.17366 12.8829 3.39497 13.1042C3.61908 13.328 3.82786 13.4622 4.11458 13.5729C4.44412 13.7003 4.79432 13.7707 5.31474 13.7947C6.05078 13.8292 6.30802 13.8333 8.00067 13.8333C9.65033 13.8333 9.9192 13.8289 10.6864 13.7947C11.2078 13.7703 11.559 13.6997 11.8847 13.5737C12.1736 13.4615 12.3835 13.3267 12.6049 13.1056C12.8291 12.8811 12.963 12.6729 13.0738 12.3855C13.2009 12.0571 13.2714 11.7065 13.2955 11.1859C13.3299 10.4498 13.334 10.1925 13.334 8.49992C13.334 6.85027 13.3296 6.58139 13.2955 5.81417C13.2709 5.29263 13.2003 4.94091 13.0742 4.61537C12.9623 4.32684 12.8278 4.11749 12.6056 3.89495C12.382 3.67135 12.1744 3.53787 11.8847 3.4262C11.5587 3.29961 11.2083 3.22923 10.6865 3.20513C9.95053 3.17062 9.69326 3.16659 8.00067 3.16659ZM8.00067 1.83325C9.81173 1.83325 10.0379 1.83992 10.749 1.87325C11.4584 1.90603 11.9423 2.01825 12.3673 2.18325C12.8067 2.3527 13.1779 2.58159 13.5484 2.95214C13.9184 3.3227 14.1473 3.69492 14.3173 4.13325C14.4817 4.5577 14.594 5.04214 14.6273 5.75159C14.659 6.4627 14.6673 6.68881 14.6673 8.49992C14.6673 10.3111 14.6607 10.5371 14.6273 11.2483C14.5945 11.9577 14.4817 12.4416 14.3173 12.8666C14.1479 13.3061 13.9184 13.6771 13.5484 14.0477C13.1779 14.4177 12.8051 14.6466 12.3673 14.8166C11.9423 14.9811 11.4584 15.0933 10.749 15.1266C10.0379 15.1583 9.81173 15.1666 8.00067 15.1666C6.18954 15.1666 5.96342 15.1599 5.25232 15.1266C4.54287 15.0938 4.05954 14.9811 3.63398 14.8166C3.19509 14.6471 2.82342 14.4177 2.45287 14.0477C2.08232 13.6771 1.85398 13.3044 1.68398 12.8666C1.51898 12.4416 1.40732 11.9577 1.37398 11.2483C1.34232 10.5371 1.33398 10.3111 1.33398 8.49992C1.33398 6.68881 1.34065 6.4627 1.37398 5.75159C1.40676 5.04159 1.51898 4.55825 1.68398 4.13325C1.85342 3.69437 2.08232 3.3227 2.45287 2.95214C2.82342 2.58159 3.19565 2.35325 3.63398 2.18325C4.05898 2.01825 4.54232 1.90659 5.25232 1.87325C5.96342 1.84159 6.18954 1.83325 8.00067 1.83325Z" fill="#3C4565" fill-opacity="0.5"/>
</svg>
