<svg width="16" height="16" viewBox="0 0 16 16" fill="none" xmlns="http://www.w3.org/2000/svg">
<path d="M8.6854 1.33398C9.43567 1.33522 9.81586 1.33919 10.1444 1.34897L10.2738 1.3532C10.4233 1.35852 10.5707 1.36518 10.7485 1.37352C11.4579 1.40629 11.9419 1.51852 12.3669 1.68352C12.8063 1.85296 13.1774 2.08185 13.5479 2.4524C13.9179 2.82296 14.1469 3.19518 14.3169 3.63352C14.4813 4.05796 14.5935 4.5424 14.6269 5.25185C14.6348 5.42962 14.6412 5.57709 14.6465 5.72659L14.6507 5.85598C14.6604 6.18448 14.6649 6.56473 14.6663 7.315L14.6668 7.81213C14.6669 7.87286 14.6669 7.93553 14.6669 8.0002L14.6668 8.18826L14.6664 8.6854C14.6651 9.43567 14.6612 9.81586 14.6514 10.1444L14.6471 10.2738C14.6419 10.4233 14.6352 10.5707 14.6269 10.7485C14.5941 11.4579 14.4813 11.9419 14.3169 12.3669C14.1474 12.8063 13.9179 13.1774 13.5479 13.5479C13.1774 13.9179 12.8046 14.1469 12.3669 14.3169C11.9419 14.4813 11.4579 14.5935 10.7485 14.6269C10.5707 14.6348 10.4233 14.6412 10.2738 14.6465L10.1444 14.6507C9.81586 14.6604 9.43567 14.6649 8.6854 14.6663L8.18826 14.6668C8.12753 14.6669 8.06487 14.6669 8.0002 14.6669L7.81213 14.6668L7.315 14.6664C6.56473 14.6651 6.18448 14.6612 5.85598 14.6514L5.72659 14.6471C5.57709 14.6419 5.42962 14.6352 5.25185 14.6269C4.5424 14.5941 4.05907 14.4813 3.63352 14.3169C3.19462 14.1474 2.82296 13.9179 2.4524 13.5479C2.08185 13.1774 1.85352 12.8046 1.68352 12.3669C1.51852 11.9419 1.40685 11.4579 1.37352 10.7485C1.3656 10.5707 1.35914 10.4233 1.3539 10.2738L1.34971 10.1444C1.33996 9.81586 1.33551 9.43567 1.33407 8.6854L1.33398 7.315C1.33522 6.56473 1.33919 6.18448 1.34897 5.85598L1.3532 5.72659C1.35852 5.57709 1.36518 5.42962 1.37352 5.25185C1.40629 4.54185 1.51852 4.05852 1.68352 3.63352C1.85296 3.19462 2.08185 2.82296 2.4524 2.4524C2.82296 2.08185 3.19518 1.85352 3.63352 1.68352C4.05852 1.51852 4.54185 1.40685 5.25185 1.37352C5.42962 1.3656 5.57709 1.35914 5.72659 1.3539L5.85598 1.34971C6.18448 1.33996 6.56473 1.33551 7.315 1.33407L8.6854 1.33398ZM8.0002 4.66685C6.15825 4.66685 4.66685 6.15987 4.66685 8.0002C4.66685 9.84213 6.15987 11.3335 8.0002 11.3335C9.84213 11.3335 11.3335 9.84047 11.3335 8.0002C11.3335 6.15825 9.84047 4.66685 8.0002 4.66685ZM8.0002 6.00019C9.1048 6.00019 10.0002 6.89527 10.0002 8.0002C10.0002 9.1048 9.10507 10.0002 8.0002 10.0002C6.8956 10.0002 6.00019 9.10507 6.00019 8.0002C6.00019 6.8956 6.89527 6.00019 8.0002 6.00019ZM11.5002 3.66685C11.0407 3.66685 10.6669 4.04012 10.6669 4.49962C10.6669 4.95911 11.0401 5.33296 11.5002 5.33296C11.9597 5.33296 12.3335 4.95969 12.3335 4.49962C12.3335 4.04012 11.9591 3.66627 11.5002 3.66685Z" fill="#3C4565"/>
</svg>
