<svg width="16" height="17" viewBox="0 0 16 17" fill="none" xmlns="http://www.w3.org/2000/svg">
<path d="M2.66731 2.5H13.334C13.7022 2.5 14.0007 2.79848 14.0007 3.16667V13.8333C14.0007 14.2015 13.7022 14.5 13.334 14.5H2.66731C2.29911 14.5 2.00064 14.2015 2.00064 13.8333V3.16667C2.00064 2.79848 2.29911 2.5 2.66731 2.5ZM3.33397 3.83333V13.1667H12.6673V3.83333H3.33397ZM5.00064 6.5C4.44835 6.5 4.00064 6.05229 4.00064 5.5C4.00064 4.94771 4.44835 4.5 5.00064 4.5C5.55292 4.5 6.00064 4.94771 6.00064 5.5C6.00064 6.05229 5.55292 6.5 5.00064 6.5ZM4.33397 7.16667H5.66731V12.1667H4.33397V7.16667ZM8.00065 7.453C8.39025 7.07689 8.84432 6.83333 9.33399 6.83333C10.7147 6.83333 11.6673 7.9526 11.6673 9.33333V12.1667H10.334V9.33333C10.334 8.689 9.81165 8.16667 9.16732 8.16667C8.52299 8.16667 8.00065 8.689 8.00065 9.33333V12.1667H6.66732V7.16667H8.00065V7.453Z" fill="#3C4565" fill-opacity="0.5"/>
</svg>
