<svg width="20" height="20" viewBox="0 0 20 20" fill="none" xmlns="http://www.w3.org/2000/svg">
<path d="M20 10C20 15.5227 15.5227 20 10 20C4.47734 20 0 15.5227 0 10C0 9.74818 0.00924479 9.49857 0.0277344 9.25117C0.0425781 9.05065 0.0632812 8.85195 0.0898438 8.65508C0.1558 8.16414 0.258298 7.67881 0.396484 7.20312C0.469922 6.95026 0.552995 6.70182 0.645703 6.45781C0.740234 6.20833 0.844401 5.9638 0.958203 5.72422C1.31512 4.97078 1.76483 4.26491 2.29688 3.62305C2.34375 3.56602 2.3918 3.50977 2.43984 3.4543C2.55938 3.31628 2.68242 3.18177 2.80898 3.05078C2.86185 2.99609 2.9151 2.94271 2.96875 2.89062C3.0043 2.85547 3.04023 2.82031 3.07617 2.78594C3.11211 2.75156 3.14766 2.71797 3.18359 2.68398C3.3599 2.51992 3.54219 2.36211 3.73047 2.21055H3.73281C4.25794 1.78756 4.82449 1.41876 5.42383 1.10977C5.60352 1.0168 5.78581 0.929427 5.9707 0.847656C6.37097 0.67098 6.78255 0.521169 7.20273 0.399219C7.39935 0.341406 7.59831 0.289323 7.79961 0.242969C8.06497 0.183333 8.33424 0.134375 8.60742 0.0960938C8.70664 0.0824219 8.80625 0.0699219 8.90625 0.059375C8.98906 0.05 9.07188 0.0421875 9.15547 0.0355469C9.43359 0.0117188 9.71562 0 10 0C15.5227 0 20 4.47734 20 10Z" fill="#1B35A5"/>
<path d="M9.15557 0.0355225V0.979663L7.2458 2.8906L6.51221 3.62302L5.82783 4.3074L4.56025 5.57498L3.73213 6.40271L3.18525 6.94958L0.883691 9.25115H0.027832C0.0426758 9.05063 0.0633789 8.85193 0.0899414 8.65505C0.155898 8.16412 0.258396 7.67878 0.396582 7.2031L3.18369 4.41599L3.29268 4.3074L3.73213 3.86716L3.97705 3.62263L5.97158 1.6281L7.20361 0.396069C7.39971 0.34034 7.5984 0.289299 7.79971 0.242944C8.06507 0.183309 8.33434 0.134351 8.60752 0.0960693C8.70674 0.0823975 8.80635 0.0698975 8.90635 0.0593506C8.98916 0.0499756 9.07197 0.0421631 9.15557 0.0355225Z" fill="white"/>
<path d="M9.15557 7.63518V9.2512H8.23682L5.97119 6.98557L3.29268 4.30745L2.60869 3.62307L2.43994 3.45432C2.55947 3.3163 2.68252 3.1818 2.80908 3.05081C2.86195 2.99612 2.9152 2.94273 2.96885 2.89065C3.00439 2.85549 3.04033 2.82034 3.07627 2.78596C3.11221 2.75159 3.14775 2.71799 3.18369 2.68401C3.35999 2.51995 3.54229 2.36213 3.73057 2.21057L4.56104 3.04104L5.82861 4.30862L7.24541 5.72542L7.979 6.45901L9.15557 7.63518Z" fill="white"/>
<path d="M8.90615 0.0593872L5.91475 3.05079H4.9917L5.42139 2.62111L5.96826 2.07423L7.79639 0.246106C8.06175 0.186471 8.33102 0.137512 8.6042 0.099231C8.70654 0.0824341 8.80615 0.0699341 8.90615 0.0593872Z" fill="#DB1B1B"/>
<path d="M9.15537 7.9574V8.88044L6.89404 6.61951H7.81709L9.15537 7.9574Z" fill="#DB1B1B"/>
<path d="M3.34228 3.05079H2.80908C2.86195 2.99611 2.9152 2.94272 2.96885 2.89064C3.00439 2.85548 3.04033 2.82032 3.07627 2.78595L3.34228 3.05079Z" fill="#DB1B1B"/>
<path d="M9.15547 2.89064V6.459H5.97148V9.25236H3.18359V6.45782H0.644531C0.739063 6.20835 0.843229 5.96381 0.957031 5.72423C1.31431 4.97073 1.76442 4.26486 2.29688 3.62306C2.34375 3.56603 2.3918 3.50978 2.43984 3.45431C2.55937 3.31629 2.68242 3.18178 2.80898 3.05079C2.86185 2.99611 2.9151 2.94272 2.96875 2.89064H3.18359V2.68282C3.3599 2.51876 3.54219 2.36095 3.73047 2.20939H3.73281C4.25794 1.7864 4.82449 1.4176 5.42383 1.10861C5.60352 1.01564 5.78581 0.928267 5.9707 0.846497V2.89064H9.15547Z" fill="white"/>
<path d="M8.92197 14.8383L7.40986 13.8473L8.37432 12.4133L6.67979 13.0391L6.13213 11.3184L5.58447 13.0391L3.88994 12.4133L4.85479 13.8473L3.34229 14.8383L5.1415 14.9684L4.85479 16.8457L6.13213 15.4379L7.40986 16.8457L7.12275 14.9684L8.92197 14.8383Z" fill="white"/>
<path d="M15.7833 3.97383L15.0618 3.50117L15.522 2.81719L14.7138 3.11563L14.4524 2.29492L14.1911 3.11563L13.3829 2.81719L13.8431 3.50117L13.1216 3.97383L13.9798 4.03633L13.8431 4.93164L14.4524 4.26016L15.0618 4.93164L14.9251 4.03633L15.7833 3.97383Z" fill="white"/>
<path d="M12.6617 9.11289L11.9402 8.64023L12.4004 7.95625L11.5918 8.25469L11.3309 7.43359L11.0695 8.25469L10.2613 7.95625L10.7215 8.64023L10 9.11289L10.8582 9.175L10.7215 10.0703L11.3309 9.39883L11.9402 10.0703L11.8035 9.175L12.6617 9.11289Z" fill="white"/>
<path d="M18.8336 7.20314L18.1121 6.73048L18.5723 6.0465L17.7637 6.34493L17.5027 5.52423L17.2414 6.34493L16.4332 6.0465L16.8934 6.73048L16.1719 7.20314L17.0301 7.26525L16.8934 8.16095L17.5027 7.48907L18.1121 8.16095L17.9754 7.26525L18.8336 7.20314Z" fill="white"/>
<path d="M15.7833 16.7668L15.0618 16.2941L15.522 15.6102L14.7138 15.9086L14.4524 15.0879L14.1911 15.9086L13.3829 15.6102L13.8431 16.2941L13.1216 16.7668L13.9798 16.8289L13.8431 17.7246L14.4524 17.0531L15.0618 17.7246L14.9251 16.8289L15.7833 16.7668Z" fill="white"/>
<path d="M16.4978 10.7824L16.7349 11.5125H17.5028L16.8817 11.9641L17.1188 12.6941L16.4978 12.243L15.8767 12.6941L16.1138 11.9641L15.4927 11.5125H16.2603L16.4978 10.7824Z" fill="white"/>
<path d="M10.9766 19.9527C10.6552 19.9842 10.3297 20 10 20C4.47734 20 0 15.5227 0 10C0 9.74818 0.00924479 9.49857 0.0277344 9.25117C0.0425781 9.05065 0.0632812 8.85195 0.0898438 8.65508C0.1558 8.16414 0.258298 7.67881 0.396484 7.20312C0.469922 6.95026 0.552995 6.70182 0.645703 6.45781C0.740234 6.20833 0.844401 5.9638 0.958203 5.72422C1.31512 4.97078 1.76483 4.26491 2.29688 3.62305C2.34375 3.56602 2.3918 3.50977 2.43984 3.4543C2.55938 3.31628 2.68242 3.18177 2.80898 3.05078C2.86185 2.99609 2.9151 2.94271 2.96875 2.89062C3.0043 2.85547 3.04023 2.82031 3.07617 2.78594C3.11211 2.75156 3.14766 2.71797 3.18359 2.68398C3.3599 2.51992 3.54219 2.36211 3.73047 2.21055H3.73281C4.25794 1.78756 4.82449 1.41876 5.42383 1.10977C5.60352 1.0168 5.78581 0.929427 5.9707 0.847656C6.37097 0.67098 6.78255 0.521169 7.20273 0.399219C7.39935 0.341406 7.59831 0.289323 7.79961 0.242969C8.06497 0.183333 8.33424 0.134375 8.60742 0.0960938C8.70664 0.0824219 8.80625 0.0699219 8.90625 0.059375C8.98906 0.05 9.07188 0.0421875 9.15547 0.0355469C9.43359 0.0117188 9.71562 0 10 0C10.3292 0 10.6547 0.0157552 10.9766 0.0472656C10.3601 0.106641 9.75054 0.223556 9.15586 0.396484C8.85169 0.484766 8.55404 0.586979 8.26289 0.703125C7.5632 0.981086 6.89724 1.33739 6.27773 1.76523L5.97148 2.07031V1.98477C5.78346 2.12539 5.60117 2.2724 5.42461 2.42578C4.36505 3.33735 3.50845 4.46102 2.91016 5.72422C2.79661 5.96354 2.69245 6.20807 2.59766 6.45781C2.57734 6.51133 2.55859 6.56523 2.53828 6.61953C2.45 6.8638 2.37188 7.11237 2.30391 7.36523C2.2487 7.56706 2.19987 7.77148 2.15742 7.97852C2.02118 8.64371 1.95273 9.321 1.95312 10C1.95312 15.1953 5.91133 19.4625 10.9766 19.9527Z" fill="#1A358E"/>
<path d="M9.15557 0.0355225V0.39646C8.85166 0.484741 8.55413 0.586955 8.26299 0.703101C7.5633 0.981062 6.89733 1.33737 6.27783 1.76521L5.97158 2.07029V1.98474C5.78356 2.12537 5.60127 2.27237 5.42471 2.42576C4.36514 3.33733 3.50855 4.46099 2.91025 5.72419C2.79671 5.96352 2.69255 6.20805 2.59775 6.45779C2.57744 6.5113 2.55869 6.56521 2.53838 6.61951C2.4501 6.86378 2.37197 7.11235 2.304 7.36521C2.2488 7.56703 2.19997 7.77146 2.15752 7.97849L0.883691 9.25115H0.027832C0.0426758 9.05063 0.0633789 8.85193 0.0899414 8.65505C0.155898 8.16412 0.258396 7.67878 0.396582 7.2031L1.14189 6.45779L1.8751 5.72419L3.18369 4.41599L3.29268 4.3074L3.73213 3.86716L3.97705 3.62263L4.56025 3.03943L5.42314 2.17654L5.97002 1.62966L7.20205 0.397632C7.39919 0.340861 7.5984 0.289299 7.79971 0.242944C8.06507 0.183309 8.33434 0.134351 8.60752 0.0960693C8.70674 0.0823975 8.80635 0.0698975 8.90635 0.0593506C8.98916 0.0499756 9.07197 0.0421631 9.15557 0.0355225Z" fill="#DDDBDB"/>
<path d="M4.66846 3.14807C4.25535 3.58782 3.88263 4.06382 3.55479 4.57034L3.29346 4.30901L2.60869 3.62307L2.43994 3.45432C2.55947 3.3163 2.68252 3.1818 2.80908 3.05081C2.86195 2.99612 2.9152 2.94273 2.96885 2.89065C3.00439 2.85549 3.04033 2.82034 3.07627 2.78596C3.11221 2.75159 3.14775 2.71799 3.18369 2.68401C3.35999 2.51995 3.54229 2.36213 3.73057 2.21057L4.66846 3.14807Z" fill="white"/>
<path d="M8.90635 0.0593872L8.26299 0.703137C7.5633 0.981098 6.89733 1.33741 6.27783 1.76525L7.80127 0.241809C8.06663 0.182174 8.3359 0.133215 8.60908 0.0949341C8.70674 0.0824341 8.80635 0.0699341 8.90635 0.0593872Z" fill="#BF1B1B"/>
<path d="M3.34228 3.05079H2.80908C2.86195 2.99611 2.9152 2.94272 2.96885 2.89064C3.00439 2.85548 3.04033 2.82032 3.07627 2.78595L3.34228 3.05079Z" fill="#DB1B1B"/>
<path d="M5.97148 0.84491V1.98475C5.78346 2.12538 5.60117 2.27238 5.42461 2.42577C4.36505 3.33734 3.50845 4.46101 2.91016 5.72421C2.79661 5.96353 2.69245 6.20806 2.59766 6.4578H0.644531C0.739063 6.20832 0.843229 5.96379 0.957031 5.72421C1.31431 4.9707 1.76442 4.26483 2.29688 3.62303C2.34375 3.566 2.3918 3.50975 2.43984 3.45428C2.55937 3.31626 2.68242 3.18176 2.80898 3.05077C2.86185 2.99608 2.9151 2.9427 2.96875 2.89061H3.18359V2.6828C3.3599 2.51874 3.54219 2.36093 3.73047 2.20936H3.73281C4.25794 1.78637 4.82449 1.41757 5.42383 1.10858C5.60299 1.01457 5.78555 0.92668 5.97148 0.84491Z" fill="#DDDBDB"/>
<path d="M9.15537 3.62307V5.72424H5.42295V9.2512H3.73193V5.72424H0.958496C1.31529 4.97082 1.76487 4.26496 2.29678 3.62307H3.73193V2.20784C4.25706 1.78485 4.82361 1.41605 5.42295 1.10706V3.62307H9.15537Z" fill="#DB1B1B"/>
<path d="M5.42305 1.10706V2.42581C4.36405 3.33753 3.508 4.46119 2.91016 5.72424H0.957031C1.31431 4.97074 1.76442 4.26487 2.29688 3.62307H3.73203V2.20784C4.25716 1.78485 4.82371 1.41605 5.42305 1.10706Z" fill="#BF1B1B"/>
<path d="M3.04697 6.61951L0.416895 9.25115H0.027832C0.0426758 9.05063 0.0633789 8.85193 0.0899414 8.65505L2.12588 6.61951H3.04697Z" fill="#DB1B1B"/>
<path d="M2.53916 6.61951C2.45088 6.86378 2.37275 7.11235 2.30479 7.36521L0.416895 9.25115H0.027832C0.0426758 9.05063 0.0633789 8.85193 0.0899414 8.65505L2.12588 6.61951H2.53916Z" fill="#BF1B1B"/>
<path d="M18.5644 11.4203C18.9156 11.4203 19.2003 11.1356 19.2003 10.7844C19.2003 10.4332 18.9156 10.1484 18.5644 10.1484C18.2132 10.1484 17.9285 10.4332 17.9285 10.7844C17.9285 11.1356 18.2132 11.4203 18.5644 11.4203Z" fill="#2548B7"/>
<path d="M18.5644 9.91018C18.8131 9.91018 19.0148 9.70853 19.0148 9.45979C19.0148 9.21105 18.8131 9.0094 18.5644 9.0094C18.3157 9.0094 18.114 9.21105 18.114 9.45979C18.114 9.70853 18.3157 9.91018 18.5644 9.91018Z" fill="#2548B7"/>
</svg>
