<svg width="40" height="40" viewBox="0 0 40 40" fill="none" xmlns="http://www.w3.org/2000/svg">
<path d="M16.7809 27.5085L16.7771 27.5124L16.7809 27.5085Z" fill="white"/>
<path d="M16.7772 27.8931C16.6797 27.8931 16.5823 27.8559 16.5078 27.7815C16.359 27.6327 16.359 27.3916 16.5078 27.2428C16.6567 27.0936 16.8996 27.0921 17.0484 27.2409C17.1972 27.3898 17.1991 27.629 17.0503 27.7778L17.0465 27.7815C16.9721 27.8559 16.8747 27.8931 16.7772 27.8931Z" fill="#5A3DF9"/>
<path d="M23.2228 27.5124L23.219 27.5085L23.2228 27.5124Z" fill="white"/>
<path d="M23.2202 27.8921C23.1235 27.8921 23.0275 27.8555 22.9535 27.7815L22.9497 27.7777C22.8009 27.6289 22.8009 27.3879 22.9497 27.239C23.0986 27.0902 23.3396 27.0902 23.4884 27.239C23.6372 27.3879 23.6391 27.6308 23.4903 27.7796C23.4155 27.8546 23.3177 27.8921 23.2202 27.8921Z" fill="#5A3DF9"/>
<path d="M6.03442 19.9922L8.103 21.4398L16.7773 27.5122" fill="white"/>
<path d="M16.7768 27.8931C16.7013 27.8931 16.6254 27.8708 16.5588 27.8243L5.81584 20.3044C5.6436 20.1839 5.60156 19.9463 5.72209 19.7739C5.84263 19.6015 6.07998 19.5596 6.2526 19.6802L16.9955 27.2001C17.1682 27.3208 17.2098 27.5583 17.0893 27.7308C17.0152 27.8366 16.8969 27.8931 16.7768 27.8931Z" fill="#5A3DF9"/>
<path d="M33.9656 19.9924L23.2266 27.5124L33.9656 19.9924Z" fill="white"/>
<path d="M23.2273 27.8932C23.1072 27.8932 22.9889 27.8366 22.9148 27.7308C22.7943 27.5583 22.836 27.3208 23.0086 27.2001L33.7474 19.6802C33.9193 19.5596 34.1574 19.6015 34.2779 19.7737C34.3985 19.9462 34.3568 20.1837 34.1842 20.3044L23.4453 27.8243C23.3791 27.8708 23.3028 27.8932 23.2273 27.8932Z" fill="#5A3DF9"/>
<path d="M37.5697 17.8513H37.566C37.3554 17.8513 37.1851 17.6807 37.1851 17.4703C37.1851 17.2599 37.3554 17.0894 37.566 17.0894C37.7766 17.0894 37.9488 17.2599 37.9488 17.4703C37.9488 17.6807 37.7803 17.8513 37.5697 17.8513Z" fill="#5A3DF9"/>
<path d="M16.1218 4.45934L17.6055 3.13416C18.9767 1.90157 21.0223 1.90157 22.3936 3.13416L23.8772 4.45934H16.1218Z" fill="#4A30D9"/>
<path d="M23.8773 4.84024H16.1217C15.9636 4.84024 15.8222 4.74277 15.7657 4.59508C15.7095 4.44738 15.7501 4.28035 15.868 4.17506L17.352 2.84991C18.8602 1.49314 21.1373 1.49333 22.6485 2.85084L24.131 4.17525C24.2489 4.28034 24.2895 4.44757 24.2333 4.59507C24.1768 4.74277 24.0354 4.84024 23.8773 4.84024ZM17.1202 4.07834H22.8788L22.1399 3.41818C20.919 2.32108 19.0793 2.32108 17.8606 3.41744L17.1202 4.07834Z" fill="#5A3DF9"/>
<path d="M37.5658 17.4703V17.4742L33.9658 19.9922V13.9275L36.6477 16.2475C37.0363 16.5903 37.3564 17.0018 37.5658 17.4703Z" fill="#4A30D9"/>
<path d="M33.9659 20.3733C33.9056 20.3733 33.8454 20.3589 33.7899 20.3301C33.6638 20.2646 33.585 20.1344 33.585 19.9923V13.9276C33.585 13.7786 33.672 13.6432 33.8074 13.581C33.9428 13.5193 34.1021 13.5418 34.2152 13.6394L36.8971 15.9594C37.348 16.3569 37.6891 16.8123 37.9138 17.3149C37.9358 17.3638 37.9469 17.4168 37.9469 17.4704V17.4743C37.9469 17.5987 37.8863 17.7151 37.7844 17.7864L34.1843 20.3044C34.1192 20.35 34.0425 20.3733 33.9659 20.3733ZM34.3469 14.7607V19.2609L37.0771 17.3511C36.9049 17.055 36.6769 16.7808 36.396 16.5332L34.3469 14.7607Z" fill="#5A3DF9"/>
<path d="M6.03431 13.9275V19.9922L2.43433 17.4703C2.64764 17.0056 2.96004 16.5865 3.35625 16.2475L6.03431 13.9275Z" fill="#4A30D9"/>
<path d="M6.03425 20.3732C5.95761 20.3732 5.88098 20.3499 5.8155 20.3041L2.2158 17.7822C2.06512 17.6767 2.01156 17.4786 2.08819 17.3114C2.32554 16.7943 2.67822 16.3263 3.10865 15.958L5.78462 13.6395C5.89734 13.5421 6.05694 13.5192 6.19236 13.5809C6.32815 13.6429 6.4152 13.7783 6.4152 13.9275V19.9922C6.4152 20.1343 6.33596 20.2645 6.21021 20.3302C6.15479 20.359 6.09452 20.3732 6.03425 20.3732ZM2.92636 17.3497L5.6533 19.2603V14.7616L3.60605 16.5354C3.33671 16.7656 3.10568 17.0432 2.92636 17.3497Z" fill="#5A3DF9"/>
<path d="M34.2442 38.1673H5.75274C4.78362 38.1673 3.84687 37.8191 3.11509 37.1871C3.02618 37.1102 2.97744 36.9968 2.9834 36.8794C2.98935 36.762 3.04925 36.6539 3.1456 36.5866L16.5589 27.1999C16.6906 27.1078 16.8655 27.1085 16.9957 27.1999L19.4603 28.9257C19.8364 29.1869 20.2825 29.1099 20.537 28.9277L23.0046 27.1999C23.1326 27.1102 23.3175 27.1102 23.4455 27.1999L36.8584 36.5829C36.9507 36.6474 37.0098 36.7496 37.0195 36.8617C37.0295 36.9739 36.989 37.0847 36.9094 37.1644L36.9056 37.1681C36.1538 37.8191 35.2159 38.1673 34.2442 38.1673ZM4.01576 36.9075C4.53325 37.2311 5.13481 37.4054 5.75274 37.4054H34.2442C34.8658 37.4054 35.4704 37.23 35.9893 36.9047L23.2252 27.9756L20.9767 29.55C20.4012 29.9603 19.6155 29.9616 19.0243 29.5505L16.7773 27.977L4.01576 36.9075Z" fill="#5A3DF9"/>
<path d="M19.2421 29.2302C19.3259 29.2912 19.4174 29.3407 19.5126 29.3788C19.4174 29.3445 19.3297 29.2988 19.2421 29.2378L16.7774 27.5121L3.36406 36.8988C2.59072 36.2283 2.09546 35.2417 2.09546 34.1293V19.0055C2.09546 18.4721 2.21358 17.9464 2.43451 17.4702L6.03449 19.9921L8.10308 21.4397L16.7812 27.5083L19.2421 29.2302Z" fill="white"/>
<path d="M3.36391 37.2797C3.27462 37.2797 3.18571 37.2483 3.11428 37.1866C2.22477 36.4152 1.71436 35.3008 1.71436 34.1293V19.0056C1.71436 18.4245 1.84382 17.8382 2.08898 17.3099C2.1366 17.2076 2.227 17.1317 2.33564 17.1023C2.44501 17.0733 2.56071 17.0935 2.65334 17.1583L19.4603 28.9181C19.4621 28.9194 19.464 28.9207 19.4655 28.9219C19.5224 28.963 19.5856 28.9978 19.6545 29.0253C19.8472 29.1025 19.9428 29.3201 19.8687 29.5145C19.7951 29.7091 19.5789 29.8082 19.3833 29.7372C19.2571 29.6916 19.1399 29.6308 19.025 29.551L16.7772 27.9771L3.58229 37.2109C3.51644 37.2571 3.44017 37.2797 3.36391 37.2797ZM2.61614 18.0625C2.52388 18.3683 2.47626 18.6879 2.47626 19.0056V34.1293C2.47626 34.9818 2.80959 35.7972 3.39999 36.4087L16.1173 27.5089L2.61614 18.0625Z" fill="#5A3DF9"/>
<path d="M37.9049 19.0056V34.1293C37.9049 35.2417 37.4096 36.2246 36.6401 36.8951L23.2268 27.5122H23.223L20.7582 29.2379C20.7315 29.257 20.7049 29.2722 20.6782 29.2836C20.7049 29.2684 20.7315 29.2493 20.7582 29.2303L23.2191 27.5084L33.9658 19.9922L37.5658 17.4741C37.7868 17.9541 37.9049 18.4722 37.9049 19.0056Z" fill="white"/>
<path d="M36.6399 37.276C36.5636 37.276 36.4874 37.2533 36.4215 37.2072L23.2251 27.9756L20.9766 29.55C20.929 29.5837 20.8802 29.6116 20.8289 29.6336C20.6436 29.7126 20.4278 29.6347 20.3371 29.4535C20.247 29.2725 20.314 29.0526 20.4896 28.9526C20.5034 28.9449 20.5164 28.9349 20.5298 28.9252L37.3475 17.162C37.4401 17.0971 37.5566 17.0766 37.6656 17.1064C37.7746 17.136 37.8646 17.2122 37.9118 17.3147C38.16 17.8536 38.2857 18.4224 38.2857 19.0056V34.1293C38.2857 35.2969 37.7772 36.4096 36.8903 37.1823C36.8188 37.2444 36.7295 37.276 36.6399 37.276ZM23.8851 27.5074L36.6031 36.4046C37.1916 35.7926 37.5238 34.9786 37.5238 34.1293V19.0056C37.5238 18.6862 37.4769 18.3717 37.3843 18.066L23.8851 27.5074Z" fill="#5A3DF9"/>
<path d="M33.9658 7.79415V19.9923L23.2192 27.5084L20.7582 29.2304C20.7316 29.2494 20.7049 29.2685 20.6783 29.2837C20.6744 29.2837 20.6744 29.2875 20.6706 29.2875C20.6211 29.318 20.5678 29.3446 20.5144 29.3675C20.4154 29.4132 20.3087 29.4437 20.1983 29.4589C20.1678 29.4627 20.1335 29.4665 20.0992 29.4704C20.0344 29.478 19.9696 29.478 19.9049 29.4704C19.7982 29.4665 19.6916 29.4437 19.5925 29.4094C19.5811 29.4056 19.5697 29.4018 19.562 29.398C19.543 29.3942 19.5278 29.3866 19.5125 29.3789C19.4173 29.3408 19.3259 29.2913 19.2421 29.2304L16.7811 27.5084L8.10301 21.4399L6.03442 19.9923V7.79415C6.03442 5.95417 7.48583 4.45703 9.27633 4.45703H30.7239C32.5144 4.45703 33.9658 5.95417 33.9658 7.79415Z" fill="white"/>
<path d="M20.0027 29.857C19.9554 29.857 19.9078 29.8542 19.8602 29.8486C19.753 29.8462 19.6102 29.8187 19.4677 29.7692C19.4628 29.7675 19.4558 29.7649 19.4476 29.7618C19.4022 29.7489 19.3665 29.732 19.339 29.718C19.2441 29.6818 19.1254 29.6165 19.0183 29.5387L5.8159 20.3043C5.71396 20.2331 5.65332 20.1165 5.65332 19.9922V7.79412C5.65332 5.74389 7.27869 4.07593 9.27646 4.07593H30.724C32.7218 4.07593 34.3468 5.7439 34.3468 7.79412V19.9922C34.3468 20.1167 34.2861 20.2331 34.1842 20.3043L20.9766 29.5424C20.9364 29.5711 20.9015 29.5949 20.8669 29.6148C20.8624 29.6172 20.8576 29.6198 20.8531 29.6221C20.7928 29.658 20.7292 29.6898 20.6652 29.7173C20.5413 29.7744 20.3989 29.8159 20.2504 29.8363L20.1396 29.849C20.0953 29.8544 20.0492 29.857 20.0027 29.857ZM19.6701 29.0326C19.6939 29.0397 19.7169 29.049 19.7393 29.0607C19.7869 29.0735 19.8564 29.0875 19.9182 29.0895C19.9844 29.0964 20.0194 29.096 20.0544 29.0919L20.1522 29.0808C20.2207 29.0713 20.2906 29.051 20.3553 29.0214C20.4003 29.0019 20.4368 28.984 20.4707 28.9632C20.4792 28.9578 20.4881 28.9528 20.4974 28.9481C20.5082 28.9411 20.519 28.9331 20.5298 28.9253L33.5849 19.7937V7.79412C33.5849 6.1641 32.3014 4.83783 30.724 4.83783H9.27646C7.69871 4.83783 6.41523 6.1641 6.41523 7.79412V19.7937L19.4602 28.9182C19.5224 28.963 19.5856 28.9978 19.6544 29.0253C19.6641 29.0298 19.6689 29.0318 19.6701 29.0326Z" fill="#5A3DF9"/>
<path d="M25.8123 17.0365C25.8123 20.2446 23.213 22.8493 19.9995 22.8493C16.7915 22.8493 14.1868 20.2446 14.1868 17.0365C14.1868 13.8286 16.7915 11.2239 19.9995 11.2239C23.213 11.2239 25.8123 13.8286 25.8123 17.0365Z" fill="#4A30D9"/>
<path d="M19.9997 23.2302C16.5846 23.2302 13.8059 20.4518 13.8059 17.0364C13.8059 13.6212 16.5846 10.8428 19.9997 10.8428C23.4149 10.8428 26.1932 13.6212 26.1932 17.0364C26.1932 20.4518 23.4149 23.2302 19.9997 23.2302ZM19.9997 11.6047C17.0046 11.6047 14.5678 14.0414 14.5678 17.0364C14.5678 20.0316 17.0046 22.4683 19.9997 22.4683C22.9945 22.4683 25.4313 20.0316 25.4313 17.0364C25.4313 14.0414 22.9945 11.6047 19.9997 11.6047Z" fill="#5A3DF9"/>
<path d="M27.8757 8.96405H12.1231C11.9126 8.96405 11.7422 8.79348 11.7422 8.5831C11.7422 8.37272 11.9126 8.20215 12.1231 8.20215H27.8757C28.0863 8.20215 28.2567 8.37272 28.2567 8.5831C28.2567 8.79348 28.0863 8.96405 27.8757 8.96405Z" fill="#5A3DF9"/>
<path d="M20.6153 19.1557H18.8995C18.6889 19.1557 18.5186 18.9852 18.5186 18.7748C18.5186 18.5644 18.6889 18.3938 18.8995 18.3938H20.6153C20.6711 18.3938 20.7183 18.3553 20.7183 18.3098V17.2463C20.7183 17.2006 20.6711 17.1621 20.6153 17.1621H19.3839C18.9066 17.1621 18.5186 16.7826 18.5186 16.3161V15.2527C18.5186 14.7861 18.9066 14.4065 19.3839 14.4065H21.0993C21.3098 14.4065 21.4802 14.5771 21.4802 14.7874C21.4802 14.9978 21.3098 15.1684 21.0993 15.1684H19.3839C19.3277 15.1684 19.2805 15.2069 19.2805 15.2527V16.3161C19.2805 16.3617 19.3277 16.4002 19.3839 16.4002H20.6153C21.0922 16.4002 21.4802 16.7798 21.4802 17.2463V18.3098C21.4802 18.7763 21.0922 19.1557 20.6153 19.1557Z" fill="white"/>
<path d="M19.9996 15.1683C19.789 15.1683 19.6187 14.9978 19.6187 14.7874V13.9786C19.6187 13.7682 19.789 13.5977 19.9996 13.5977C20.2102 13.5977 20.3806 13.7682 20.3806 13.9786V14.7874C20.3806 14.9978 20.2102 15.1683 19.9996 15.1683Z" fill="white"/>
<path d="M19.9996 19.9647C19.789 19.9647 19.6187 19.7941 19.6187 19.5837V18.7748C19.6187 18.5644 19.789 18.3938 19.9996 18.3938C20.2102 18.3938 20.3806 18.5644 20.3806 18.7748V19.5837C20.3806 19.7941 20.2102 19.9647 19.9996 19.9647Z" fill="white"/>
</svg>
