<svg width="39" height="12" viewBox="0 0 39 12" fill="none" xmlns="http://www.w3.org/2000/svg">
<path d="M2.45605 10.7129C2.1735 11.0729 1.94108 11.2712 1.75879 11.3076C1.58105 11.3486 1.43294 11.3532 1.31445 11.3213C1.19596 11.2894 1.09115 11.237 1 11.1641C0.808594 11 0.712891 10.7812 0.712891 10.5078C0.712891 10.3073 0.774414 10.1068 0.897461 9.90625C3.55436 5.68164 4.99902 3.39388 5.23145 3.04297C5.77832 2.23177 6.09505 1.77604 6.18164 1.67578L6.35254 1.4707C6.86296 0.882812 7.52604 0.588867 8.3418 0.588867C8.97526 0.588867 9.4082 0.727865 9.64062 1.00586C9.69531 1.0651 9.72266 1.17904 9.72266 1.34766C9.72721 1.51628 9.73633 1.78516 9.75 2.1543L9.78418 3.33008C9.79785 3.74479 9.8138 4.16862 9.83203 4.60156L9.87305 5.87305C9.90951 6.69336 9.94141 7.39974 9.96875 7.99219C10.1465 7.67773 10.3265 7.31087 10.5088 6.8916L11.0898 5.56543C11.6185 4.38053 12.1289 3.44401 12.6211 2.75586C12.931 2.3138 13.4414 2.09277 14.1523 2.09277C14.6764 2.09277 15.1458 2.20671 15.5605 2.43457C15.8112 2.57129 15.9342 2.69206 15.9297 2.79688C15.9297 2.89258 15.8955 2.98372 15.8271 3.07031L15.6836 3.26855C15.36 3.71973 15.041 4.18913 14.7266 4.67676L13.8105 6.13281C12.5254 8.25651 11.7803 9.47559 11.5752 9.79004C11.3701 10.1045 11.2129 10.3255 11.1035 10.4531C10.9987 10.5762 10.8597 10.681 10.6865 10.7676C10.5179 10.8542 10.3242 10.9316 10.1055 11C9.63151 11.1504 9.2373 11.2256 8.92285 11.2256C8.39421 11.2256 8.03646 11.1504 7.84961 11C7.64909 10.8177 7.36654 9.76042 7.00195 7.82812L6.76953 6.54297C6.69661 6.10547 6.63053 5.67025 6.57129 5.2373C6.4209 5.46973 6.22721 5.74544 5.99023 6.06445L3.98047 8.74414L2.45605 10.7129ZM24.4131 5.97559C24.6318 5.97559 24.7412 6.09863 24.7412 6.34473C24.7412 6.50879 24.6842 6.71615 24.5703 6.9668C24.4609 7.21289 24.3014 7.44531 24.0918 7.66406C23.8822 7.87826 23.6406 8.10156 23.3672 8.33398C23.0983 8.56641 22.7816 8.81022 22.417 9.06543C22.057 9.32064 21.6582 9.57357 21.2207 9.82422C20.7832 10.0749 20.3184 10.3005 19.8262 10.501C18.737 10.9476 17.682 11.1709 16.6611 11.1709C15.8818 11.1709 15.2005 10.9681 14.6172 10.5625C14.0065 10.1387 13.7012 9.6237 13.7012 9.01758C13.7012 8.0651 14.2139 7.16048 15.2393 6.30371C16.1234 5.56543 17.1647 4.99349 18.3633 4.58789C19.0924 4.3418 19.71 4.21875 20.2158 4.21875C20.626 4.21875 20.9723 4.31901 21.2549 4.51953C21.5557 4.73828 21.7061 5.03223 21.7061 5.40137C21.7061 5.98014 21.248 6.62044 20.332 7.32227C20.1862 7.4362 20.054 7.5319 19.9355 7.60938L19.6895 7.77344C19.2337 8.09245 18.541 8.4502 17.6113 8.84668C17.8984 8.99707 18.165 9.07227 18.4111 9.07227C18.6618 9.07227 18.8851 9.04264 19.0811 8.9834C19.2816 8.92415 19.5072 8.83984 19.7578 8.73047C20.0085 8.62109 20.2751 8.49121 20.5576 8.34082C20.8447 8.18587 21.1341 8.01725 21.4258 7.83496C22.0775 7.42936 22.6426 7.01465 23.1211 6.59082C23.3717 6.3584 23.6908 6.17383 24.0781 6.03711C24.2057 5.99609 24.3174 5.97559 24.4131 5.97559ZM16.873 7.89648L17.249 7.70508C17.3721 7.64128 17.4814 7.58203 17.5771 7.52734C18.4977 6.9987 19.0218 6.67285 19.1494 6.5498C19.277 6.42676 19.3408 6.34245 19.3408 6.29688C19.3408 6.24674 19.3271 6.18978 19.2998 6.12598C19.2725 6.06217 19.236 6.00521 19.1904 5.95508C19.0811 5.82747 18.9648 5.76367 18.8418 5.76367C18.7188 5.76367 18.582 5.78646 18.4316 5.83203C18.2858 5.8776 18.1377 5.94141 17.9873 6.02344C17.8369 6.10091 17.6911 6.19661 17.5498 6.31055C17.4131 6.41992 17.2923 6.53841 17.1875 6.66602C16.946 6.95312 16.8252 7.2015 16.8252 7.41113C16.8252 7.62077 16.8411 7.78255 16.873 7.89648ZM36.4375 9.01074C36.2142 9.13379 35.9658 9.23405 35.6924 9.31152C35.4235 9.389 35.1045 9.42773 34.7354 9.42773C34.3662 9.42773 33.972 9.30924 33.5527 9.07227C32.5091 10.0247 31.5475 10.6947 30.668 11.082C30.3945 11.2005 30.1895 11.2598 30.0527 11.2598C29.916 11.2598 29.7861 11.2507 29.6631 11.2324C29.54 11.2142 29.4193 11.1914 29.3008 11.1641C29.0137 11.0911 28.8245 11.0251 28.7334 10.9658C28.6423 10.902 28.5488 10.8177 28.4531 10.7129C28.3574 10.6081 28.2708 10.4759 28.1934 10.3164C28.0156 9.96549 27.9017 9.50749 27.8516 8.94238C26.7487 9.91764 26.0742 10.4873 25.8281 10.6514C25.5866 10.8154 25.3861 10.9339 25.2266 11.0068C24.9349 11.1436 24.6204 11.2119 24.2832 11.2119C23.9505 11.2119 23.6589 11.139 23.4082 10.9932C23.1621 10.8473 22.9525 10.6628 22.7793 10.4395C22.4238 9.97461 22.2461 9.46191 22.2461 8.90137C22.2461 8.19499 22.4238 7.49089 22.7793 6.78906C23.3171 5.72266 24.0645 5.00716 25.0215 4.64258C25.3405 4.51953 25.6117 4.45801 25.835 4.45801C26.0628 4.45801 26.2406 4.4694 26.3682 4.49219C26.4958 4.51042 26.612 4.54688 26.7168 4.60156C26.9629 4.72461 27.0859 4.92057 27.0859 5.18945C27.0859 5.42188 26.9902 5.67025 26.7988 5.93457C26.6074 6.19889 26.4434 6.41309 26.3066 6.57715C26.1699 6.74121 26.0446 6.90755 25.9307 7.07617C25.6618 7.4681 25.5273 7.80762 25.5273 8.09473C25.5273 8.30436 25.6663 8.40918 25.9443 8.40918C26.3773 8.40918 27.0563 7.98079 27.9814 7.12402C28.1729 6.47689 28.4805 5.92546 28.9043 5.46973C29.3783 4.95931 29.9023 4.7041 30.4766 4.7041C30.9596 4.7041 31.2878 4.81576 31.4609 5.03906C31.5202 5.11198 31.5498 5.18262 31.5498 5.25098C31.5498 5.31478 31.5111 5.4082 31.4336 5.53125L30.7773 6.55664C30.2669 7.35417 30.0117 7.95117 30.0117 8.34766C30.0117 8.69857 30.2259 8.87402 30.6543 8.87402C30.9779 8.87402 31.5544 8.4707 32.3838 7.66406C32.3519 7.54102 32.3359 7.41569 32.3359 7.28809C32.3359 7.16048 32.3656 7.01921 32.4248 6.86426C32.4886 6.70931 32.5752 6.54525 32.6846 6.37207C32.7939 6.19889 32.9215 6.02572 33.0674 5.85254C33.2132 5.67936 33.3704 5.52214 33.5391 5.38086C33.9173 5.07096 34.2751 4.91602 34.6123 4.91602C35.2275 4.91602 35.5352 5.22819 35.5352 5.85254C35.5352 6.24902 35.4212 6.66374 35.1934 7.09668C35.1934 7.23796 35.2708 7.35872 35.4258 7.45898C35.4714 7.49089 35.5352 7.50684 35.6172 7.50684C35.7038 7.50684 35.8154 7.47038 35.9521 7.39746C36.0889 7.32454 36.2256 7.23796 36.3623 7.1377C36.499 7.03743 36.6266 6.93717 36.7451 6.83691C36.8636 6.7321 36.9844 6.62956 37.1074 6.5293C37.513 6.21484 37.8161 6.05762 38.0166 6.05762C38.1533 6.05762 38.265 6.09863 38.3516 6.18066C38.5065 6.32194 38.584 6.42904 38.584 6.50195C38.584 6.57487 38.5658 6.65007 38.5293 6.72754C38.4928 6.80501 38.445 6.89388 38.3857 6.99414C38.3265 7.08984 38.2581 7.1901 38.1807 7.29492C37.8662 7.72331 37.6429 8.00814 37.5107 8.14941C37.3831 8.28613 37.2282 8.43197 37.0459 8.58691C36.8682 8.74186 36.6654 8.88314 36.4375 9.01074Z" fill="#25DB6E"/>
</svg>
