<svg width="32" height="32" viewBox="0 0 32 32" fill="none" xmlns="http://www.w3.org/2000/svg">
<g clip-path="url(#clip0_1_1104)">
<path d="M30.706 2.70929V7.80078H12.1349C12.0128 7.80078 11.8991 7.73877 11.833 7.63614L10.5379 5.62646C10.4718 5.52384 10.3581 5.46182 10.236 5.46182H5.32273C5.12434 5.46182 4.96351 5.62265 4.96351 5.82104V7.44156C4.96351 7.63995 4.80268 7.80078 4.60429 7.80078H1.29652V2.70929C1.29652 1.92762 1.93019 1.29395 2.71187 1.29395H29.2906C30.0723 1.29395 30.706 1.92762 30.706 2.70929Z" fill="#4A30D9"/>
<path d="M27.3835 5.58119C27.9545 5.58119 28.4174 5.11831 28.4174 4.54731C28.4174 3.97631 27.9545 3.51343 27.3835 3.51343C26.8125 3.51343 26.3497 3.97631 26.3497 4.54731C26.3497 5.11831 26.8125 5.58119 27.3835 5.58119Z" fill="white"/>
<path d="M23.7078 5.58119C24.2788 5.58119 24.7417 5.11831 24.7417 4.54731C24.7417 3.97631 24.2788 3.51343 23.7078 3.51343C23.1368 3.51343 22.6739 3.97631 22.6739 4.54731C22.6739 5.11831 23.1368 5.58119 23.7078 5.58119Z" fill="white"/>
<path d="M20.0325 5.58119C20.6035 5.58119 21.0664 5.11831 21.0664 4.54731C21.0664 3.97631 20.6035 3.51343 20.0325 3.51343C19.4615 3.51343 18.9986 3.97631 18.9986 4.54731C18.9986 5.11831 19.4615 5.58119 20.0325 5.58119Z" fill="white"/>
<path d="M8.53401 15.8323C8.53401 16.2827 8.16639 16.6503 7.71605 16.6503C7.26112 16.6503 6.89351 16.2826 6.89351 15.8323C6.89351 15.3774 7.26112 15.0098 7.71605 15.0098C8.16639 15.0098 8.53401 15.3774 8.53401 15.8323Z" fill="#4A30D9"/>
<path d="M11.707 15.8323C11.707 16.2827 11.3394 16.6503 10.8891 16.6503C10.4341 16.6503 10.0665 16.2826 10.0665 15.8323C10.0665 15.3774 10.4341 15.0098 10.8891 15.0098C11.3394 15.0098 11.707 15.3774 11.707 15.8323Z" fill="#4A30D9"/>
<path d="M14.8801 15.8323C14.8801 16.2827 14.5124 16.6503 14.0621 16.6503C13.6072 16.6503 13.2395 16.2826 13.2395 15.8323C13.2395 15.3774 13.6072 15.0098 14.0621 15.0098C14.5124 15.0098 14.8801 15.3774 14.8801 15.8323Z" fill="#4A30D9"/>
<path d="M18.0531 15.8323C18.0531 16.2827 17.6855 16.6503 17.2351 16.6503C16.7802 16.6503 16.4126 16.2826 16.4126 15.8323C16.4126 15.3774 16.7802 15.0098 17.2351 15.0098C17.6855 15.0098 18.0531 15.3774 18.0531 15.8323Z" fill="#4A30D9"/>
<path d="M21.2261 15.8323C21.2261 16.2827 20.8585 16.6503 20.4081 16.6503C19.9532 16.6503 19.5856 16.2826 19.5856 15.8323C19.5856 15.3774 19.9532 15.0098 20.4081 15.0098C20.8585 15.0098 21.2261 15.3774 21.2261 15.8323Z" fill="#4A30D9"/>
<path d="M8.53401 25.2278C8.53401 25.6782 8.16639 26.0458 7.71605 26.0458C7.26112 26.0458 6.89351 25.6782 6.89351 25.2278C6.89351 24.7729 7.26112 24.4053 7.71605 24.4053C8.16639 24.4053 8.53401 24.7729 8.53401 25.2278Z" fill="#4A30D9"/>
<path d="M11.707 25.2278C11.707 25.6782 11.3394 26.0458 10.8891 26.0458C10.4341 26.0458 10.0665 25.6782 10.0665 25.2278C10.0665 24.7729 10.4341 24.4053 10.8891 24.4053C11.3394 24.4053 11.707 24.7729 11.707 25.2278Z" fill="#4A30D9"/>
<path d="M14.8801 25.2278C14.8801 25.6782 14.5124 26.0458 14.0621 26.0458C13.6072 26.0458 13.2395 25.6782 13.2395 25.2278C13.2395 24.7729 13.6072 24.4053 14.0621 24.4053C14.5124 24.4053 14.8801 24.7729 14.8801 25.2278Z" fill="#4A30D9"/>
<path d="M18.0531 25.2278C18.0531 25.6782 17.6855 26.0458 17.2351 26.0458C16.7802 26.0458 16.4126 25.6782 16.4126 25.2278C16.4126 24.7729 16.7802 24.4053 17.2351 24.4053C17.6855 24.4053 18.0531 24.7729 18.0531 25.2278Z" fill="#4A30D9"/>
<path d="M31.0588 2.70931C31.0588 1.73436 30.2656 0.941162 29.2905 0.941162H2.71187C1.74093 0.941162 0.941177 1.73064 0.941177 2.70909V29.2932C0.941177 30.2668 1.73347 31.0588 2.70681 31.0588H29.2909C30.2643 31.0588 31.0565 30.2668 31.0565 29.2932C31.057 23.6382 31.0581 11.1284 31.0588 2.70931ZM1.64937 2.70931C1.64937 2.12935 2.11947 1.64934 2.70681 1.64934H29.2909C29.8755 1.64934 30.3507 2.12475 30.3507 2.70908V7.44805L12.1301 7.44507L10.835 5.43542C10.7031 5.23091 10.4793 5.1089 10.2358 5.1089H5.32262C4.93016 5.1089 4.61076 5.42852 4.61076 5.82121L4.60433 7.44805H1.64937V2.70931ZM29.2909 30.3529H2.70681C2.12225 30.3529 1.64706 29.8775 1.64706 29.2932V8.15394H4.60433C4.99725 8.15394 5.31665 7.83432 5.31665 7.44162L5.32262 5.81479L10.2413 5.81777L11.5359 7.8265C11.6673 8.03147 11.8911 8.15394 12.1351 8.15394H30.3507V29.2932C30.3507 29.8775 29.8755 30.3529 29.2909 30.3529Z" fill="#5A3DF9"/>
<path d="M27.3833 5.93431C28.148 5.93431 28.7702 5.3123 28.7702 4.5476C28.7702 3.78289 28.148 3.16064 27.3833 3.16064C26.6186 3.16064 25.9963 3.78289 25.9963 4.5476C25.9963 5.3123 26.6186 5.93431 27.3833 5.93431ZM27.3833 3.86653C27.7587 3.86653 28.0644 4.17214 28.0644 4.5476C28.0644 4.92306 27.7587 5.22844 27.3833 5.22844C27.0078 5.22844 26.7022 4.92306 26.7022 4.5476C26.7022 4.17214 27.0078 3.86653 27.3833 3.86653Z" fill="#5A3DF9"/>
<path d="M23.7077 5.93431C24.4724 5.93431 25.0947 5.3123 25.0947 4.5476C25.0947 3.78289 24.4724 3.16064 23.7077 3.16064C22.943 3.16064 22.3208 3.78289 22.3208 4.5476C22.3208 5.3123 22.943 5.93431 23.7077 5.93431ZM23.7077 3.86653C24.0832 3.86653 24.3888 4.17214 24.3888 4.5476C24.3888 4.92306 24.0832 5.22844 23.7077 5.22844C23.3323 5.22844 23.0267 4.92306 23.0267 4.5476C23.0267 4.17214 23.3323 3.86653 23.7077 3.86653Z" fill="#5A3DF9"/>
<path d="M20.0322 5.93431C20.7969 5.93431 21.4191 5.3123 21.4191 4.5476C21.4191 3.78289 20.7969 3.16064 20.0322 3.16064C19.2675 3.16064 18.6457 3.78289 18.6457 4.5476C18.6457 5.3123 19.2675 5.93431 20.0322 5.93431ZM20.0322 3.86653C20.4076 3.86653 20.7132 4.17214 20.7132 4.5476C20.7132 4.92306 20.4076 5.22844 20.0322 5.22844C19.6567 5.22844 19.3516 4.92306 19.3516 4.5476C19.3516 4.17214 19.6567 3.86653 20.0322 3.86653Z" fill="#5A3DF9"/>
<path d="M24.9623 13.2944H5.69992C5.27436 13.2944 4.92786 13.6409 4.92786 14.067V17.5931C4.92786 18.0192 5.27436 18.3657 5.69992 18.3657H24.9623C25.3883 18.3657 25.7348 18.0192 25.7348 17.5931V14.067C25.7348 13.6409 25.3883 13.2944 24.9623 13.2944ZM25.029 17.5931C25.029 17.6299 24.9991 17.6598 24.9623 17.6598H5.69992C5.66361 17.6598 5.63374 17.6299 5.63374 17.5931V14.067C5.63374 14.0302 5.66361 14.0003 5.69992 14.0003H24.9623C24.9991 14.0003 25.029 14.0302 25.029 14.067L25.029 17.5931Z" fill="#5A3DF9"/>
<path d="M24.9623 22.6897H5.69992C5.27436 22.6897 4.92786 23.0362 4.92786 23.4622V26.9886C4.92786 27.4146 5.27436 27.7612 5.69992 27.7612H24.9623C25.3883 27.7612 25.7348 27.4146 25.7348 26.9886V23.4622C25.7348 23.0362 25.3883 22.6897 24.9623 22.6897ZM25.029 26.9886C25.029 27.0254 24.9991 27.0553 24.9623 27.0553H5.69992C5.66361 27.0553 5.63374 27.0254 5.63374 26.9886V23.4622C5.63374 23.4254 5.66361 23.3956 5.69992 23.3956H24.9623C24.9991 23.3956 25.029 23.4255 25.029 23.4622L25.029 26.9886Z" fill="#5A3DF9"/>
<path d="M7.716 14.6567C7.06803 14.6567 6.54045 15.1841 6.54045 15.8323C6.54045 16.478 7.06802 17.0032 7.716 17.0032C8.36168 17.0032 8.88696 16.478 8.88696 15.8323C8.88696 15.1841 8.36168 14.6567 7.716 14.6567ZM7.716 16.2974C7.45681 16.2974 7.24633 16.0887 7.24633 15.8323C7.24633 15.5733 7.45681 15.3626 7.716 15.3626C7.97244 15.3626 8.18108 15.5733 8.18108 15.8323C8.18108 16.0887 7.97244 16.2974 7.716 16.2974Z" fill="#5A3DF9"/>
<path d="M10.8893 14.6567C10.2413 14.6567 9.7137 15.1841 9.7137 15.8323C9.7137 16.478 10.2413 17.0032 10.8893 17.0032C11.5345 17.0032 12.0597 16.478 12.0597 15.8323C12.0598 15.1841 11.5345 14.6567 10.8893 14.6567ZM10.8893 16.2974C10.6301 16.2974 10.4196 16.0887 10.4196 15.8323C10.4196 15.5733 10.6301 15.3626 10.8893 15.3626C11.1452 15.3626 11.3539 15.5733 11.3539 15.8323C11.3539 16.0887 11.1452 16.2974 10.8893 16.2974Z" fill="#5A3DF9"/>
<path d="M14.0621 14.6567C13.4141 14.6567 12.8865 15.1841 12.8865 15.8323C12.8865 16.478 13.4141 17.0032 14.0621 17.0032C14.7077 17.0032 15.233 16.478 15.233 15.8323C15.233 15.1841 14.7077 14.6567 14.0621 14.6567ZM14.0621 16.2974C13.8029 16.2974 13.5924 16.0887 13.5924 15.8323C13.5924 15.5733 13.8029 15.3626 14.0621 15.3626C14.3185 15.3626 14.5271 15.5733 14.5271 15.8323C14.5271 16.0887 14.3185 16.2974 14.0621 16.2974Z" fill="#5A3DF9"/>
<path d="M17.2353 14.6567C16.5873 14.6567 16.0598 15.1841 16.0598 15.8323C16.0598 16.478 16.5873 17.0032 17.2353 17.0032C17.8805 17.0032 18.4058 16.478 18.4058 15.8323C18.4058 15.1841 17.8805 14.6567 17.2353 14.6567ZM17.2353 16.2974C16.9761 16.2974 16.7656 16.0887 16.7656 15.8323C16.7656 15.5733 16.9761 15.3626 17.2353 15.3626C17.4913 15.3626 17.6999 15.5733 17.6999 15.8323C17.6999 16.0887 17.4913 16.2974 17.2353 16.2974Z" fill="#5A3DF9"/>
<path d="M20.4081 14.6567C19.7601 14.6567 19.2325 15.1841 19.2325 15.8323C19.2325 16.478 19.7601 17.0032 20.4081 17.0032C21.0538 17.0032 21.5791 16.478 21.5791 15.8323C21.5791 15.1841 21.0538 14.6567 20.4081 14.6567ZM20.4081 16.2974C20.1489 16.2974 19.9384 16.0887 19.9384 15.8323C19.9384 15.5733 20.1489 15.3626 20.4081 15.3626C20.6645 15.3626 20.8732 15.5733 20.8732 15.8323C20.8732 16.0887 20.6645 16.2974 20.4081 16.2974Z" fill="#5A3DF9"/>
<path d="M7.716 24.0525C7.06803 24.0525 6.54045 24.5798 6.54045 25.2278C6.54045 25.8735 7.06802 26.3988 7.716 26.3988C8.36168 26.3988 8.88696 25.8735 8.88696 25.2278C8.88696 24.5798 8.36168 24.0525 7.716 24.0525ZM7.716 25.6929C7.45681 25.6929 7.24633 25.4842 7.24633 25.2278C7.24633 24.9689 7.45681 24.7584 7.716 24.7584C7.97244 24.7584 8.18108 24.9689 8.18108 25.2278C8.18108 25.4842 7.97244 25.6929 7.716 25.6929Z" fill="#5A3DF9"/>
<path d="M10.8893 24.0525C10.2413 24.0525 9.7137 24.5798 9.7137 25.2278C9.7137 25.8735 10.2413 26.3988 10.8893 26.3988C11.5345 26.3988 12.0597 25.8735 12.0597 25.2278C12.0598 24.5798 11.5345 24.0525 10.8893 24.0525ZM10.8893 25.6929C10.6301 25.6929 10.4196 25.4842 10.4196 25.2278C10.4196 24.9689 10.6301 24.7584 10.8893 24.7584C11.1452 24.7584 11.3539 24.9689 11.3539 25.2278C11.3539 25.4842 11.1452 25.6929 10.8893 25.6929Z" fill="#5A3DF9"/>
<path d="M14.0621 24.0525C13.4141 24.0525 12.8865 24.5798 12.8865 25.2278C12.8865 25.8735 13.4141 26.3988 14.0621 26.3988C14.7077 26.3988 15.233 25.8735 15.233 25.2278C15.233 24.5798 14.7077 24.0525 14.0621 24.0525ZM14.0621 25.6929C13.8029 25.6929 13.5924 25.4842 13.5924 25.2278C13.5924 24.9689 13.8029 24.7584 14.0621 24.7584C14.3185 24.7584 14.5271 24.9689 14.5271 25.2278C14.5271 25.4842 14.3185 25.6929 14.0621 25.6929Z" fill="#5A3DF9"/>
<path d="M17.2353 24.0525C16.5873 24.0525 16.0598 24.5798 16.0598 25.2278C16.0598 25.8735 16.5873 26.3988 17.2353 26.3988C17.8805 26.3988 18.4058 25.8735 18.4058 25.2278C18.4058 24.5798 17.8805 24.0525 17.2353 24.0525ZM17.2353 25.6929C16.9761 25.6929 16.7656 25.4842 16.7656 25.2278C16.7656 24.9689 16.9761 24.7584 17.2353 24.7584C17.4913 24.7584 17.6999 24.9689 17.6999 25.2278C17.6999 25.4842 17.4913 25.6929 17.2353 25.6929Z" fill="#5A3DF9"/>
<path d="M3.2114 21.6985C3.01655 21.6985 2.85846 21.8566 2.85846 22.0514V26.363C2.85846 26.5579 3.01655 26.7159 3.2114 26.7159C3.40625 26.7159 3.56434 26.5579 3.56434 26.363V22.0514C3.56434 21.8566 3.40625 21.6985 3.2114 21.6985Z" fill="#5A3DF9"/>
<path d="M3.2114 20.6228C3.01655 20.6228 2.85846 20.7809 2.85846 20.9757V20.998C2.85846 21.1929 3.01655 21.3397 3.2114 21.3397C3.40625 21.3397 3.56434 21.1706 3.56434 20.9757C3.56434 20.7809 3.40625 20.6228 3.2114 20.6228Z" fill="#5A3DF9"/>
<path d="M28.1632 9.58398H22.8061C22.6112 9.58398 22.4531 9.74207 22.4531 9.93693C22.4531 10.1318 22.6112 10.2899 22.8061 10.2899H28.1632C28.358 10.2899 28.5161 10.1318 28.5161 9.93693C28.5161 9.74207 28.358 9.58398 28.1632 9.58398Z" fill="#5A3DF9"/>
<path d="M21.3203 10.2899H21.5308C21.7256 10.2899 21.8837 10.1318 21.8837 9.93693C21.8837 9.74207 21.7256 9.58398 21.5308 9.58398H21.3203C21.1255 9.58398 20.9674 9.74207 20.9674 9.93693C20.9674 10.1318 21.1255 10.2899 21.3203 10.2899Z" fill="#5A3DF9"/>
</g>
<defs>
<clipPath id="clip0_1_1104">
<rect width="32" height="32" fill="white"/>
</clipPath>
</defs>
</svg>
