<svg width="40" height="40" viewBox="0 0 40 40" fill="none" xmlns="http://www.w3.org/2000/svg">
<g clip-path="url(#clip0_1_323)">
<path d="M10.0447 5.09232C11.6321 5.09233 12.776 6.53891 12.5045 8.10297C12.1222 10.3057 12.2859 12.5865 12.9957 14.7224C13.2266 15.4172 13.1234 16.1741 12.7092 16.7778C12.1181 17.6392 11.2813 18.8621 10.7249 19.6825C10.3701 20.2057 10.3406 20.8925 10.6766 21.428C12.6483 24.5699 15.3114 27.2589 18.4477 29.2586C18.9876 29.6029 19.6867 29.5713 20.2137 29.2076L23.0288 27.2642C23.6455 26.8385 24.4226 26.7177 25.1338 26.9539C26.4875 27.4036 28.983 28.0025 31.9838 27.4269C33.4507 27.1455 34.8011 28.3085 34.8011 29.8021L34.8011 36.1774C34.8011 37.4585 33.7537 38.5663 32.4729 38.5929C22.0273 38.8097 12.5133 33.7647 6.74787 25.4339C1.62412 17.9925 1.51955 11.4335 1.53435 7.49006C1.53934 6.16184 2.61813 5.09228 3.94636 5.09229C5.9562 5.09229 7.69771 5.09231 10.0447 5.09232Z" fill="white"/>
<path d="M31.8318 39.1997C21.6182 39.1997 12.0955 34.2153 6.2545 25.7755C0.895122 17.9919 0.920906 11.1591 0.934578 7.48799C0.940434 5.83643 2.29161 4.49268 3.9463 4.49268H10.0447C10.9561 4.49268 11.8143 4.89112 12.3994 5.5872C13.0057 6.30752 13.2596 7.2622 13.0955 8.20517C12.7295 10.3177 12.8916 12.506 13.5654 14.5333C13.858 15.4145 13.726 16.356 13.2037 17.1177C12.6135 17.9778 11.7776 19.1997 11.2213 20.0192C10.9943 20.3544 10.9799 20.7825 11.185 21.1091C13.1057 24.17 15.7287 26.8138 18.7705 28.7528C19.0959 28.9614 19.5397 28.9442 19.8729 28.7138L22.6877 26.7708C23.4604 26.238 24.4451 26.0935 25.3232 26.3849C26.8111 26.8794 29.1564 27.3567 31.8709 26.838C32.7318 26.6731 33.6174 26.9013 34.3006 27.4661C35.0002 28.0442 35.4014 28.8958 35.4014 29.8021V36.1778C35.4014 37.8067 34.0932 39.1591 32.4854 39.1927C32.2678 39.1974 32.049 39.1997 31.8318 39.1997ZM3.94629 5.69268C2.95098 5.69268 2.13809 6.49971 2.13457 7.49268C2.12129 11.0325 2.09629 17.6208 7.24199 25.0935C12.9764 33.3794 22.4104 38.1942 32.4604 37.9927C33.4041 37.9732 34.2014 37.1419 34.2014 36.1778V29.8021C34.2014 29.2544 33.9588 28.7403 33.5361 28.3911C33.1303 28.0552 32.6064 27.9208 32.0967 28.0161C29.1283 28.5849 26.5693 28.063 24.9447 27.5239C24.4225 27.3513 23.8334 27.438 23.3697 27.7583L20.5549 29.7013C19.8178 30.2107 18.8643 30.2349 18.1256 29.7653C14.9346 27.7302 12.183 24.9575 10.1686 21.7466C9.71075 21.0177 9.73419 20.0747 10.2279 19.3458C10.7854 18.5247 11.6229 17.3013 12.2143 16.4388C12.5225 15.9896 12.5998 15.4333 12.4264 14.9114C11.6908 12.6974 11.5131 10.3075 11.9135 8.0005C12.0162 7.40675 11.8588 6.80832 11.4811 6.35909C11.1193 5.9294 10.6092 5.69268 10.0447 5.69268L3.94629 5.69268Z" fill="#5A3DF9"/>
<path d="M5.43077 16.0955C5.02157 14.6727 4.77625 13.3402 4.62964 12.1262L5.43077 16.0955ZM6.15058 18.2298C6.11559 18.1396 6.0813 18.0498 6.0477 17.9602L6.15058 18.2298Z" fill="white"/>
<path d="M38.4032 12.2435C37.914 16.5598 34.4966 20.0933 30.1988 20.7249C27.8617 21.0683 25.635 20.5658 23.796 19.473L20.5462 20.3712C20.1203 20.489 19.7228 20.1095 19.8207 19.6785L20.5732 16.366C19.4125 14.5492 18.826 12.3246 19.1035 9.94534C19.6125 5.58083 23.1114 2.03437 27.4705 1.48084C33.7953 0.677691 39.1167 5.94758 38.4032 12.2435Z" fill="#4A30D9"/>
<path d="M28.7292 21.4333C26.9687 21.4333 25.2616 20.988 23.7136 20.1184L20.7062 20.9497C20.3003 21.0637 19.8765 20.9544 19.5726 20.6645C19.2687 20.3739 19.1425 19.9559 19.2355 19.5458L19.9335 16.4739C18.7284 14.4848 18.2355 12.2091 18.5074 9.87545C19.0468 5.25124 22.7847 1.47076 27.3952 0.885613C30.5925 0.480141 33.7273 1.53248 35.9988 3.77389C38.2667 6.01217 39.3605 9.12311 38.9991 12.3106C38.4831 16.8645 34.8187 20.6528 30.2859 21.3184C29.7644 21.395 29.2445 21.4333 28.7292 21.4333ZM23.796 18.8731C23.9031 18.8731 24.0089 18.902 24.1027 18.9575C25.9179 20.0364 27.996 20.4427 30.1113 20.1309C34.1148 19.5427 37.3511 16.1973 37.807 12.1762C38.1265 9.35672 37.1601 6.60593 35.1558 4.6278C33.148 2.64733 30.3765 1.71452 27.546 2.07624C23.4757 2.59265 20.1757 5.93093 19.6995 10.0145C19.4499 12.1551 19.9269 14.2395 21.0788 16.0434C21.1656 16.1786 21.1941 16.3426 21.1585 16.4989L20.4058 19.8114L23.6363 18.895C23.6886 18.8801 23.7425 18.8731 23.796 18.8731Z" fill="#5A3DF9"/>
<path d="M23.6153 12.4088C24.3293 12.4088 24.9081 11.83 24.9081 11.116C24.9081 10.402 24.3293 9.82324 23.6153 9.82324C22.9013 9.82324 22.3225 10.402 22.3225 11.116C22.3225 11.83 22.9013 12.4088 23.6153 12.4088Z" fill="white"/>
<path d="M23.6151 12.688C22.748 12.688 22.0425 11.9825 22.0425 11.1153C22.0425 10.2481 22.748 9.54346 23.6151 9.54346C24.4823 9.54346 25.1878 10.2481 25.1878 11.1153C25.1878 11.9825 24.4823 12.688 23.6151 12.688ZM23.6151 10.1028C23.0569 10.1028 22.6026 10.5575 22.6026 11.1153C22.6026 11.6739 23.0569 12.1286 23.6151 12.1286C24.1733 12.1286 24.6276 11.6739 24.6276 11.1153C24.6276 10.5575 24.1733 10.1028 23.6151 10.1028Z" fill="white"/>
<path d="M28.7513 12.4088C29.4653 12.4088 30.0441 11.83 30.0441 11.116C30.0441 10.402 29.4653 9.82324 28.7513 9.82324C28.0373 9.82324 27.4585 10.402 27.4585 11.116C27.4585 11.83 28.0373 12.4088 28.7513 12.4088Z" fill="white"/>
<path d="M28.7514 12.688C27.8842 12.688 27.1787 11.9825 27.1787 11.1153C27.1787 10.2481 27.8842 9.54346 28.7514 9.54346C29.6186 9.54346 30.324 10.2481 30.324 11.1153C30.324 11.9825 29.6186 12.688 28.7514 12.688ZM28.7514 10.1028C28.1932 10.1028 27.7389 10.5575 27.7389 11.1153C27.7389 11.6739 28.1932 12.1286 28.7514 12.1286C29.3096 12.1286 29.7639 11.6739 29.7639 11.1153C29.7639 10.5575 29.3096 10.1028 28.7514 10.1028Z" fill="white"/>
<path d="M33.888 12.4088C34.602 12.4088 35.1808 11.83 35.1808 11.116C35.1808 10.402 34.602 9.82324 33.888 9.82324C33.174 9.82324 32.5952 10.402 32.5952 11.116C32.5952 11.83 33.174 12.4088 33.888 12.4088Z" fill="white"/>
<path d="M33.8878 12.688C33.0207 12.688 32.3152 11.9825 32.3152 11.1153C32.3152 10.2481 33.0207 9.54346 33.8878 9.54346C34.755 9.54346 35.4605 10.2481 35.4605 11.1153C35.4605 11.9825 34.755 12.688 33.8878 12.688ZM33.8878 10.1028C33.3296 10.1028 32.8753 10.5575 32.8753 11.1153C32.8753 11.6739 33.3296 12.1286 33.8878 12.1286C34.446 12.1286 34.9003 11.6739 34.9003 11.1153C34.9003 10.5575 34.446 10.1028 33.8878 10.1028Z" fill="white"/>
</g>
<defs>
<clipPath id="clip0_1_323">
<rect width="40" height="40" fill="white"/>
</clipPath>
</defs>
</svg>
