<svg width="14" height="15" viewBox="0 0 14 15" fill="none" xmlns="http://www.w3.org/2000/svg">
<path d="M7.00004 14.1666C3.31814 14.1666 0.333374 11.1818 0.333374 7.49992C0.333374 3.81802 3.31814 0.833252 7.00004 0.833252C10.6819 0.833252 13.6667 3.81802 13.6667 7.49992C13.6667 11.1818 10.6819 14.1666 7.00004 14.1666ZM7.00004 12.8333C9.94557 12.8333 12.3334 10.4455 12.3334 7.49992C12.3334 4.5544 9.94557 2.16659 7.00004 2.16659C4.05452 2.16659 1.66671 4.5544 1.66671 7.49992C1.66671 10.4455 4.05452 12.8333 7.00004 12.8333ZM6.33337 9.49992H7.66671V10.8333H6.33337V9.49992ZM7.66671 8.40332V8.83325H6.33337V7.83325C6.33337 7.46505 6.63184 7.16659 7.00004 7.16659C7.55231 7.16659 8.00004 6.71885 8.00004 6.16659C8.00004 5.6143 7.55231 5.16659 7.00004 5.16659C6.51491 5.16659 6.11044 5.51207 6.01924 5.97043L4.71158 5.70889C4.92429 4.63938 5.86804 3.83325 7.00004 3.83325C8.28871 3.83325 9.33337 4.87792 9.33337 6.16659C9.33337 7.22359 8.63051 8.11645 7.66671 8.40332Z" fill="#3C4565"/>
</svg>
