<svg width="32" height="32" viewBox="0 0 32 32" fill="none" xmlns="http://www.w3.org/2000/svg">
<g clip-path="url(#clip0_1_1254)">
<path d="M12.313 24.8772H20.1671V28.5924H12.313V24.8772Z" fill="white"/>
<path d="M20.1669 29.0721H12.3129C12.0479 29.0721 11.8329 28.8571 11.8329 28.5921V24.8775C11.8329 24.6125 12.0479 24.3975 12.3129 24.3975H20.1669C20.4319 24.3975 20.6469 24.6125 20.6469 24.8775V28.5921C20.6469 28.8571 20.4319 29.0721 20.1669 29.0721ZM12.7929 28.1121H19.6869V25.3575H12.7929V28.1121Z" fill="#5A3DF9"/>
<path d="M9.44714 30.9443H23.0327C23.0327 29.6455 21.9798 28.5925 20.6809 28.5925H11.7989C10.5001 28.5925 9.44714 29.6454 9.44714 30.9443Z" fill="#4A30D9"/>
<path d="M23.0328 31.4242H9.44716C9.18216 31.4242 8.96716 31.2092 8.96716 30.9442C8.96716 29.3826 10.2375 28.1123 11.799 28.1123H20.6809C22.2425 28.1123 23.5128 29.3826 23.5128 30.9442C23.5128 31.2092 23.2978 31.4242 23.0328 31.4242ZM9.98966 30.4642H22.4903C22.2778 29.6639 21.5472 29.0723 20.6809 29.0723H11.799C10.9328 29.0723 10.2022 29.6639 9.98966 30.4642Z" fill="#5A3DF9"/>
<path d="M3.43619 24.8775C2.15544 24.8775 1.11719 23.8393 1.11719 22.5585C1.11719 21.4784 1.11719 2.35193 1.11719 3.37467C1.11719 2.09392 2.15544 1.05566 3.43619 1.05566H28.5639C29.8447 1.05566 30.8829 2.09392 30.8829 3.37467V22.5585C30.8829 23.8393 29.8447 24.8775 28.5639 24.8775" fill="white"/>
<path d="M28.5638 25.3576C28.2988 25.3576 28.0838 25.1426 28.0838 24.8776C28.0838 24.6126 28.2988 24.3976 28.5638 24.3976C29.5778 24.3976 30.4028 23.5726 30.4028 22.5585V3.37444C30.4028 2.36069 29.5778 1.53569 28.5638 1.53569H3.43627C2.42221 1.53569 1.59721 2.36069 1.59721 3.37444V22.5585C1.59721 23.5726 2.42221 24.3976 3.43627 24.3976C3.70127 24.3976 3.91627 24.6126 3.91627 24.8776C3.91627 25.1426 3.70127 25.3576 3.43627 25.3576C1.89284 25.3576 0.637207 24.1019 0.637207 22.5585V3.33475C0.637207 3.32537 0.637521 3.316 0.638141 3.30693C0.674077 1.79475 1.91533 0.575684 3.43627 0.575684H28.5638C30.1072 0.575684 31.3628 1.83131 31.3628 3.37444V22.5585C31.3628 24.1019 30.1072 25.3576 28.5638 25.3576Z" fill="#5A3DF9"/>
<path d="M28.5639 24.8774C29.8446 24.8774 30.8829 23.8391 30.8829 22.5584V20.1541H1.11707V22.5584C1.11707 23.8391 2.15532 24.8774 3.43607 24.8774C3.93257 24.8774 29.9124 24.8774 28.5639 24.8774Z" fill="#4A30D9"/>
<path d="M28.6144 25.3575H3.43596C1.89284 25.3575 0.637207 24.1019 0.637207 22.5584V20.1541C0.637207 19.8891 0.852209 19.6741 1.11721 19.6741H30.8828C31.1478 19.6741 31.3628 19.8891 31.3628 20.1541V22.5584C31.3628 24.0728 30.1538 25.3103 28.6503 25.3563C28.6385 25.3572 28.6266 25.3575 28.6144 25.3575ZM1.59721 20.6341V22.5585C1.59721 23.5725 2.42221 24.3975 3.43597 24.3975H28.5638C29.5778 24.3975 30.4028 23.5725 30.4028 22.5585V20.6341H1.59721Z" fill="#5A3DF9"/>
<path d="M27.9838 22.9935C27.8622 22.9935 27.7341 22.9422 27.6444 22.8528C27.555 22.7631 27.5038 22.6416 27.5038 22.5135C27.5038 22.3919 27.555 22.2638 27.6444 22.1744C27.7788 22.04 27.9966 22.0016 28.1694 22.0719C28.2269 22.0975 28.2844 22.1294 28.3294 22.1744C28.4125 22.2638 28.4638 22.3919 28.4638 22.5135C28.4638 22.6416 28.4125 22.7631 28.3294 22.8528C28.2844 22.8975 28.2269 22.936 28.1694 22.9616C28.1116 22.9806 28.0478 22.9935 27.9838 22.9935Z" fill="white"/>
<path d="M25.8203 22.9934C25.6925 22.9934 25.571 22.9421 25.4813 22.8528C25.3916 22.7631 25.3403 22.6415 25.3403 22.5134C25.3403 22.3918 25.3916 22.2637 25.4813 22.1743C25.6603 21.995 25.9803 21.995 26.1597 22.1743C26.2494 22.2637 26.3003 22.3918 26.3003 22.5134C26.3003 22.6415 26.2494 22.7631 26.1597 22.8528C26.07 22.9421 25.9485 22.9934 25.8203 22.9934Z" fill="white"/>
<path d="M23.6509 22.9935C23.5868 22.9935 23.5293 22.9806 23.4715 22.9616C23.4078 22.936 23.3565 22.8975 23.3115 22.8528C23.2221 22.7631 23.1709 22.6416 23.1709 22.5135C23.1709 22.3919 23.2221 22.2638 23.3115 22.1744C23.3565 22.1294 23.4078 22.0975 23.4715 22.0719C23.6443 22.0016 23.8556 22.04 23.99 22.1744C24.0797 22.2638 24.1309 22.3919 24.1309 22.5135C24.1309 22.6416 24.0796 22.7632 23.99 22.8528C23.9003 22.9422 23.7787 22.9935 23.6509 22.9935Z" fill="white"/>
<path d="M16.682 22.9956H15.3179C15.0529 22.9956 14.8379 22.7806 14.8379 22.5156C14.8379 22.2506 15.0529 22.0356 15.3179 22.0356H16.682C16.947 22.0356 17.162 22.2506 17.162 22.5156C17.162 22.7806 16.947 22.9956 16.682 22.9956Z" fill="white"/>
<path d="M9.88288 16.0394C12.8845 16.0394 15.3178 13.6062 15.3178 10.6046C15.3178 7.60296 12.8845 5.16968 9.88288 5.16968C6.88128 5.16968 4.448 7.60296 4.448 10.6046C4.448 13.6062 6.88128 16.0394 9.88288 16.0394Z" fill="#4A30D9"/>
<path d="M9.88284 16.52C6.62128 16.52 3.96753 13.8663 3.96753 10.6047C3.96753 7.34313 6.62128 4.6897 9.88284 4.6897C13.1444 4.6897 15.7978 7.34314 15.7978 10.6047C15.7978 13.8663 13.1444 16.52 9.88284 16.52ZM9.88284 5.6497C7.15035 5.6497 4.92753 7.87251 4.92753 10.6047C4.92753 13.3372 7.15034 15.56 9.88284 15.56C12.615 15.56 14.8378 13.3372 14.8378 10.6047C14.8378 7.87252 12.615 5.6497 9.88284 5.6497Z" fill="#5A3DF9"/>
<path d="M9.88285 11.0874C8.99754 11.0874 8.27722 10.3674 8.27722 9.48209C8.27722 8.59678 8.99754 7.87646 9.88285 7.87646C10.7682 7.87646 11.4885 8.59678 11.4885 9.48209C11.4885 9.74709 11.2735 9.96209 11.0085 9.96209C10.7435 9.96209 10.5285 9.74709 10.5285 9.48209C10.5285 9.12615 10.2388 8.83646 9.88285 8.83646C9.52691 8.83646 9.23722 9.12615 9.23722 9.48209C9.23722 9.83803 9.52691 10.1274 9.88285 10.1274C10.1478 10.1274 10.3628 10.3424 10.3628 10.6074C10.3628 10.8724 10.1479 11.0874 9.88285 11.0874Z" fill="white"/>
<path d="M9.88285 13.3384C8.99754 13.3384 8.27722 12.6184 8.27722 11.7331C8.27722 11.4681 8.49222 11.2531 8.75722 11.2531C9.02222 11.2531 9.23722 11.4681 9.23722 11.7331C9.23722 12.089 9.52691 12.3784 9.88285 12.3784C10.2388 12.3784 10.5285 12.089 10.5285 11.7331C10.5285 11.3771 10.2388 11.0874 9.88285 11.0874C9.61785 11.0874 9.40285 10.8724 9.40285 10.6074C9.40285 10.3424 9.61785 10.1274 9.88285 10.1274C10.7682 10.1274 11.4885 10.8478 11.4885 11.7331C11.4885 12.6184 10.7682 13.3384 9.88285 13.3384Z" fill="white"/>
<path d="M9.88283 8.8365C9.61783 8.8365 9.40283 8.6215 9.40283 8.3565V7.63088C9.40283 7.36588 9.61783 7.15088 9.88283 7.15088C10.1478 7.15088 10.3628 7.36588 10.3628 7.63088V8.3565C10.3628 8.62151 10.1478 8.8365 9.88283 8.8365Z" fill="white"/>
<path d="M9.88283 14.0753C9.61783 14.0753 9.40283 13.8603 9.40283 13.5953V12.8584C9.40283 12.5934 9.61783 12.3784 9.88283 12.3784C10.1478 12.3784 10.3628 12.5934 10.3628 12.8584V13.5953C10.3628 13.8603 10.1478 14.0753 9.88283 14.0753Z" fill="white"/>
<path d="M15.6713 16.3675L15.558 15.0117L16.9138 15.1251" fill="white"/>
<path d="M15.6706 16.8478C15.4238 16.8478 15.2138 16.6584 15.1928 16.4078L15.0794 15.0519C15.0678 14.9112 15.1184 14.7722 15.2184 14.6725C15.3181 14.5725 15.4581 14.5238 15.5978 14.5334L16.9538 14.6469C17.2178 14.6691 17.4141 14.9012 17.3922 15.1653C17.3703 15.43 17.1434 15.6228 16.8738 15.6038L16.0834 15.5375L16.1497 16.3278C16.1716 16.5919 15.9753 16.8241 15.7113 16.8462C15.6978 16.8472 15.6841 16.8478 15.6706 16.8478Z" fill="#5A3DF9"/>
<path d="M15.5577 15.012L17.2518 16.7054L15.5577 15.012Z" fill="white"/>
<path d="M17.2516 17.1855C17.1288 17.1855 17.006 17.1386 16.9123 17.0449L15.2185 15.3511C15.031 15.1636 15.031 14.8599 15.2185 14.6724C15.406 14.4849 15.7098 14.4849 15.8973 14.6724L17.591 16.3661C17.7785 16.5536 17.7785 16.8574 17.591 17.0449C17.4973 17.1386 17.3744 17.1855 17.2516 17.1855Z" fill="#5A3DF9"/>
<path d="M22.4041 5.27982H19.4129C19.1479 5.27982 18.9329 5.06482 18.9329 4.79982C18.9329 4.53483 19.1479 4.31982 19.4129 4.31982H22.4041C22.6691 4.31982 22.8841 4.53483 22.8841 4.79982C22.8841 5.06482 22.6691 5.27982 22.4041 5.27982Z" fill="#5A3DF9"/>
<path d="M20.0394 8.47392H19.4129C19.1479 8.47392 18.9329 8.25891 18.9329 7.99392C18.9329 7.72892 19.1479 7.51392 19.4129 7.51392H20.0394C20.3044 7.51392 20.5194 7.72892 20.5194 7.99392C20.5194 8.25891 20.3044 8.47392 20.0394 8.47392Z" fill="#5A3DF9"/>
<path d="M27.5782 8.47392H21.8382C21.5732 8.47392 21.3582 8.25891 21.3582 7.99392C21.3582 7.72892 21.5732 7.51392 21.8382 7.51392H27.5782C27.8432 7.51392 28.0582 7.72892 28.0582 7.99392C28.0582 8.25891 27.8432 8.47392 27.5782 8.47392Z" fill="#5A3DF9"/>
<path d="M25.1932 11.6678H19.4129C19.1479 11.6678 18.9329 11.4528 18.9329 11.1878C18.9329 10.9228 19.1479 10.7078 19.4129 10.7078H25.1932C25.4582 10.7078 25.6732 10.9228 25.6732 11.1878C25.6732 11.4528 25.4582 11.6678 25.1932 11.6678Z" fill="#5A3DF9"/>
<path d="M27.5781 11.6678H26.9716C26.7066 11.6678 26.4916 11.4528 26.4916 11.1878C26.4916 10.9228 26.7066 10.7078 26.9716 10.7078H27.5781C27.8431 10.7078 28.0581 10.9228 28.0581 11.1878C28.0581 11.4528 27.8431 11.6678 27.5781 11.6678Z" fill="#5A3DF9"/>
<path d="M22.0404 14.8616H19.4129C19.1479 14.8616 18.9329 14.6466 18.9329 14.3816C18.9329 14.1166 19.1479 13.9016 19.4129 13.9016H22.0404C22.3054 13.9016 22.5204 14.1166 22.5204 14.3816C22.5204 14.6466 22.3054 14.8616 22.0404 14.8616Z" fill="#5A3DF9"/>
<path d="M27.5781 14.8616H23.7685C23.5035 14.8616 23.2885 14.6466 23.2885 14.3816C23.2885 14.1166 23.5035 13.9016 23.7685 13.9016H27.5781C27.8431 13.9016 28.0581 14.1166 28.0581 14.3816C28.0581 14.6466 27.8431 14.8616 27.5781 14.8616Z" fill="#5A3DF9"/>
</g>
<defs>
<clipPath id="clip0_1_1254">
<rect width="32" height="32" fill="white"/>
</clipPath>
</defs>
</svg>
