<svg width="32" height="32" viewBox="0 0 32 32" fill="none" xmlns="http://www.w3.org/2000/svg">
<path d="M27.0353 23.4766C27.0353 29.6949 21.9914 30.8799 15.7731 30.8799C9.55468 30.8799 4.51086 29.6949 4.51086 23.4766C4.51086 18.1496 8.21241 10.0646 13.183 7.83105H18.3632C23.3205 10.0483 27.0353 18.1306 27.0353 23.4766Z" fill="white"/>
<path d="M15.773 31.3598C9.96644 31.3598 4.03082 30.4233 4.03082 23.4767C4.03082 17.9001 7.94269 9.65982 12.9861 7.39326C13.048 7.36545 13.1152 7.35107 13.183 7.35107H18.3633C18.4308 7.35107 18.4977 7.36545 18.5593 7.39295C23.603 9.64889 27.5152 17.8914 27.5152 23.4767C27.5152 30.4233 21.5796 31.3598 15.773 31.3598ZM13.2877 8.31107C8.60801 10.4936 4.99082 18.222 4.99082 23.4767C4.99082 28.3942 8.11457 30.3998 15.773 30.3998C23.4314 30.3998 26.5552 28.3942 26.5552 23.4767C26.5552 18.2133 22.9386 10.483 18.2593 8.31107H13.2877Z" fill="#5A3DF9"/>
<path d="M20.666 2.59617C20.509 4.30079 19.6249 6.46515 18.3631 7.83129H13.183C11.8406 6.37795 10.9257 4.02124 10.8589 2.27571C10.8539 2.14646 10.9174 2.01863 11.0181 1.93751C11.7725 1.33009 12.4679 1.12012 13.1725 1.12012C15.123 1.12012 17.0547 2.79182 20.1776 2.19132C20.4364 2.14156 20.6902 2.33377 20.666 2.59617Z" fill="#4A30D9"/>
<path d="M18.3633 8.31114H13.183C13.0492 8.31114 12.9214 8.25521 12.8305 8.15677C11.4845 6.69989 10.4536 4.23427 10.3792 2.29396C10.3686 2.01615 10.4945 1.74302 10.7164 1.56396C11.4999 0.933333 12.2799 0.639893 13.1724 0.639893C14.003 0.639893 14.8002 0.904577 15.6442 1.18489C16.9461 1.6177 18.293 2.06396 20.087 1.71989C20.3683 1.6652 20.6592 1.74708 20.8683 1.93614C21.068 2.11708 21.1686 2.37364 21.1442 2.63989C20.967 4.55864 19.9914 6.77583 18.7158 8.15677C18.6252 8.25521 18.4973 8.31114 18.3633 8.31114ZM13.398 7.35114H18.1483C19.1861 6.14615 20.0023 4.26271 20.1777 2.65677C18.2036 3.04708 16.6836 2.54177 15.3417 2.09614C14.5402 1.8299 13.848 1.59989 13.1724 1.59989C12.5017 1.59989 11.9302 1.81927 11.3189 2.31146C11.4017 3.92771 12.2592 6.03083 13.398 7.35114Z" fill="#5A3DF9"/>
<path d="M20.0698 8.31107H11.4764C11.2114 8.31107 10.9964 8.09607 10.9964 7.83107C10.9964 7.56608 11.2114 7.35107 11.4764 7.35107H20.0698C20.3348 7.35107 20.5498 7.56608 20.5498 7.83107C20.5498 8.09607 20.3348 8.31107 20.0698 8.31107Z" fill="#5A3DF9"/>
<path d="M15.577 7.83105C15.5903 9.03025 14.175 9.02361 13.8146 11.165L15.577 7.83105Z" fill="white"/>
<path d="M13.8152 11.6451C13.7886 11.6451 13.7618 11.6429 13.7349 11.6386C13.4736 11.5945 13.2974 11.347 13.3411 11.0854C13.563 9.76638 14.1636 9.14764 14.6021 8.69576C14.948 8.33951 15.1008 8.16794 15.0971 7.83639C15.0943 7.57139 15.3068 7.35388 15.5718 7.35107H15.5771C15.8399 7.35107 16.0543 7.56264 16.0571 7.82576C16.0652 8.5667 15.6718 8.97201 15.2911 9.3642C14.8827 9.78513 14.4602 10.2205 14.288 11.2448C14.2483 11.4792 14.0452 11.6451 13.8152 11.6451Z" fill="#5A3DF9"/>
<path d="M15.5769 7.8313C15.5769 7.8313 17.2512 8.87634 16.8904 10.9075L15.5769 7.8313Z" fill="white"/>
<path d="M16.8911 11.3874C16.8633 11.3874 16.8348 11.3849 16.8067 11.3799C16.5455 11.3337 16.3714 11.0846 16.418 10.8237C16.7183 9.13119 15.3367 8.24712 15.323 8.23838C15.098 8.09806 15.0295 7.80181 15.1698 7.57713C15.3101 7.35182 15.6067 7.28369 15.8311 7.424C15.9108 7.47369 17.7758 8.66744 17.363 10.9912C17.3217 11.224 17.1192 11.3874 16.8911 11.3874Z" fill="#5A3DF9"/>
<path d="M15.7728 26.8344C19.2435 26.8344 22.057 24.0209 22.057 20.5503C22.057 17.0796 19.2435 14.2661 15.7728 14.2661C12.3022 14.2661 9.48865 17.0796 9.48865 20.5503C9.48865 24.0209 12.3022 26.8344 15.7728 26.8344Z" fill="#4A30D9"/>
<path d="M15.773 27.3145C12.0433 27.3145 9.00891 24.2801 9.00891 20.5504C9.00891 16.8208 12.0433 13.7864 15.773 13.7864C19.5027 13.7864 22.537 16.8208 22.537 20.5504C22.537 24.2801 19.5027 27.3145 15.773 27.3145ZM15.773 14.7464C12.5727 14.7464 9.96891 17.3501 9.96891 20.5504C9.96891 23.7508 12.5727 26.3545 15.773 26.3545C18.9733 26.3545 21.577 23.7508 21.577 20.5504C21.577 17.3501 18.9733 14.7464 15.773 14.7464Z" fill="#5A3DF9"/>
<path d="M15.7729 21.0338C14.7908 21.0338 13.9917 20.2347 13.9917 19.2522C13.9917 18.27 14.7908 17.4709 15.7729 17.4709C16.7551 17.4709 17.5542 18.27 17.5542 19.2522C17.5542 19.5172 17.3392 19.7322 17.0742 19.7322C16.8092 19.7322 16.5942 19.5172 16.5942 19.2522C16.5942 18.7994 16.2258 18.4309 15.7729 18.4309C15.3201 18.4309 14.9517 18.7994 14.9517 19.2522C14.9517 19.7053 15.3201 20.0738 15.7729 20.0738C16.0379 20.0738 16.2529 20.2888 16.2529 20.5538C16.2529 20.8188 16.038 21.0338 15.7729 21.0338Z" fill="white"/>
<path d="M15.7729 23.6365C14.7908 23.6365 13.9917 22.8374 13.9917 21.8552C13.9917 21.5902 14.2067 21.3752 14.4717 21.3752C14.7367 21.3752 14.9517 21.5902 14.9517 21.8552C14.9517 22.308 15.3201 22.6765 15.7729 22.6765C16.2258 22.6765 16.5942 22.308 16.5942 21.8552C16.5942 21.4024 16.2258 21.034 15.7729 21.034C15.5079 21.034 15.2929 20.819 15.2929 20.554C15.2929 20.289 15.5079 20.074 15.7729 20.074C16.7551 20.074 17.5542 20.873 17.5542 21.8552C17.5542 22.8374 16.7551 23.6365 15.7729 23.6365Z" fill="white"/>
<path d="M15.773 18.431C15.508 18.431 15.293 18.216 15.293 17.951V17.1507C15.293 16.8857 15.508 16.6707 15.773 16.6707C16.038 16.6707 16.253 16.8857 16.253 17.1507V17.951C16.253 18.216 16.038 18.431 15.773 18.431Z" fill="white"/>
<path d="M15.773 24.4878C15.508 24.4878 15.293 24.2728 15.293 24.0078V23.1563C15.293 22.8913 15.508 22.6763 15.773 22.6763C16.038 22.6763 16.253 22.8913 16.253 23.1563V24.0078C16.253 24.2728 16.038 24.4878 15.773 24.4878Z" fill="white"/>
<path d="M24.853 7.31185C24.588 7.31185 24.373 7.09685 24.373 6.83185V2.95217C24.373 2.68717 24.588 2.47217 24.853 2.47217C25.118 2.47217 25.333 2.68717 25.333 2.95217V6.83185C25.333 7.09686 25.118 7.31185 24.853 7.31185Z" fill="#5A3DF9"/>
<path d="M26.1177 4.69368C25.9948 4.69368 25.872 4.64681 25.7783 4.55306L24.853 3.62774L23.9277 4.55306C23.7402 4.74056 23.4364 4.74056 23.2489 4.55306C23.0614 4.36556 23.0614 4.06181 23.2489 3.8743L24.5136 2.60962C24.7011 2.42212 25.0048 2.42212 25.1923 2.60962L26.457 3.8743C26.6445 4.06181 26.6445 4.36556 26.457 4.55306C26.3633 4.64681 26.2405 4.69368 26.1177 4.69368Z" fill="#5A3DF9"/>
<path d="M28.8639 11.0493C28.5989 11.0493 28.3839 10.8343 28.3839 10.5693V6.69118C28.3839 6.42618 28.5989 6.21118 28.8639 6.21118C29.1289 6.21118 29.3439 6.42618 29.3439 6.69118V10.5693C29.3439 10.8343 29.1289 11.0493 28.8639 11.0493Z" fill="#5A3DF9"/>
<path d="M30.1286 8.4327C30.0058 8.4327 29.883 8.38582 29.7893 8.29207L28.864 7.36676L27.9386 8.29207C27.7511 8.47957 27.4474 8.47957 27.2599 8.29207C27.0724 8.10457 27.0724 7.80082 27.2599 7.61332L28.5246 6.34863C28.7121 6.16113 29.0158 6.16113 29.2033 6.34863L30.468 7.61332C30.6555 7.80083 30.6555 8.10458 30.468 8.29208C30.3743 8.38582 30.2514 8.4327 30.1286 8.4327Z" fill="#5A3DF9"/>
<path d="M7.14736 7.31185C6.88236 7.31185 6.66736 7.09685 6.66736 6.83185V2.95217C6.66736 2.68717 6.88236 2.47217 7.14736 2.47217C7.41236 2.47217 7.62736 2.68717 7.62736 2.95217V6.83185C7.62736 7.09686 7.41236 7.31185 7.14736 7.31185Z" fill="#5A3DF9"/>
<path d="M8.41202 4.69368C8.28921 4.69368 8.1664 4.64681 8.07265 4.55306L7.14734 3.62774L6.22203 4.55306C6.03453 4.74056 5.73078 4.74056 5.54327 4.55306C5.35577 4.36556 5.35577 4.06181 5.54327 3.8743L6.80796 2.60962C6.99546 2.42212 7.29921 2.42212 7.48671 2.60962L8.7514 3.8743C8.9389 4.06181 8.9389 4.36556 8.7514 4.55306C8.65765 4.64681 8.53483 4.69368 8.41202 4.69368Z" fill="#5A3DF9"/>
<path d="M3.13613 11.0493C2.87113 11.0493 2.65613 10.8343 2.65613 10.5693V6.69118C2.65613 6.42618 2.87113 6.21118 3.13613 6.21118C3.40113 6.21118 3.61613 6.42618 3.61613 6.69118V10.5693C3.61613 10.8343 3.40113 11.0493 3.13613 11.0493Z" fill="#5A3DF9"/>
<path d="M4.40079 8.4327C4.27798 8.4327 4.15517 8.38582 4.06142 8.29207L3.13611 7.36676L2.2108 8.29207C2.0233 8.47957 1.71954 8.47957 1.53204 8.29207C1.34454 8.10457 1.34454 7.80082 1.53204 7.61332L2.79673 6.34863C2.98423 6.16113 3.28798 6.16113 3.47548 6.34863L4.74017 7.61332C4.92767 7.80083 4.92767 8.10458 4.74017 8.29208C4.64642 8.38582 4.52361 8.4327 4.40079 8.4327Z" fill="#5A3DF9"/>
<path d="M24.8527 7.63181C24.5877 7.63181 24.3727 7.41681 24.3727 7.15181V6.83181C24.3727 6.56681 24.5877 6.35181 24.8527 6.35181C25.1177 6.35181 25.3327 6.56681 25.3327 6.83181V7.15181C25.3327 7.41681 25.1177 7.63181 24.8527 7.63181Z" fill="#5A3DF9"/>
<path d="M24.8527 9.48336C24.5877 9.48336 24.3727 9.26835 24.3727 9.00336V8.54055C24.3727 8.27555 24.5877 8.06055 24.8527 8.06055C25.1177 8.06055 25.3327 8.27555 25.3327 8.54055V9.00336C25.3327 9.26835 25.1177 9.48336 24.8527 9.48336Z" fill="#5A3DF9"/>
<path d="M24.8527 11.1919C24.5877 11.1919 24.3727 10.9769 24.3727 10.7119V10.3919C24.3727 10.1269 24.5877 9.91187 24.8527 9.91187C25.1177 9.91187 25.3327 10.1269 25.3327 10.3919V10.7119C25.3327 10.9769 25.1177 11.1919 24.8527 11.1919Z" fill="#5A3DF9"/>
<path d="M28.8639 11.3694C28.5989 11.3694 28.3839 11.1544 28.3839 10.8894V10.5694C28.3839 10.3044 28.5989 10.0894 28.8639 10.0894C29.1289 10.0894 29.3439 10.3044 29.3439 10.5694V10.8894C29.3439 11.1544 29.1289 11.3694 28.8639 11.3694Z" fill="#5A3DF9"/>
<path d="M28.8639 13.2215C28.5989 13.2215 28.3839 13.0065 28.3839 12.7415V12.2783C28.3839 12.0133 28.5989 11.7983 28.8639 11.7983C29.1289 11.7983 29.3439 12.0133 29.3439 12.2783V12.7415C29.3439 13.0065 29.1289 13.2215 28.8639 13.2215Z" fill="#5A3DF9"/>
<path d="M28.8639 14.9309C28.5989 14.9309 28.3839 14.7159 28.3839 14.4509V14.1309C28.3839 13.8659 28.5989 13.6509 28.8639 13.6509C29.1289 13.6509 29.3439 13.8659 29.3439 14.1309V14.4509C29.3439 14.7159 29.1289 14.9309 28.8639 14.9309Z" fill="#5A3DF9"/>
<path d="M7.14736 7.63181C6.88236 7.63181 6.66736 7.41681 6.66736 7.15181V6.83181C6.66736 6.56681 6.88236 6.35181 7.14736 6.35181C7.41236 6.35181 7.62736 6.56681 7.62736 6.83181V7.15181C7.62736 7.41681 7.41236 7.63181 7.14736 7.63181Z" fill="#5A3DF9"/>
<path d="M7.14736 9.48336C6.88236 9.48336 6.66736 9.26835 6.66736 9.00336V8.54055C6.66736 8.27555 6.88236 8.06055 7.14736 8.06055C7.41236 8.06055 7.62736 8.27555 7.62736 8.54055V9.00336C7.62736 9.26835 7.41236 9.48336 7.14736 9.48336Z" fill="#5A3DF9"/>
<path d="M7.14736 11.1919C6.88236 11.1919 6.66736 10.9769 6.66736 10.7119V10.3919C6.66736 10.1269 6.88236 9.91187 7.14736 9.91187C7.41236 9.91187 7.62736 10.1269 7.62736 10.3919V10.7119C7.62736 10.9769 7.41236 11.1919 7.14736 11.1919Z" fill="#5A3DF9"/>
<path d="M3.13613 11.3694C2.87113 11.3694 2.65613 11.1544 2.65613 10.8894V10.5694C2.65613 10.3044 2.87113 10.0894 3.13613 10.0894C3.40113 10.0894 3.61613 10.3044 3.61613 10.5694V10.8894C3.61613 11.1544 3.40113 11.3694 3.13613 11.3694Z" fill="#5A3DF9"/>
<path d="M3.13613 13.2215C2.87113 13.2215 2.65613 13.0065 2.65613 12.7415V12.2783C2.65613 12.0133 2.87113 11.7983 3.13613 11.7983C3.40113 11.7983 3.61613 12.0133 3.61613 12.2783V12.7415C3.61613 13.0065 3.40113 13.2215 3.13613 13.2215Z" fill="#5A3DF9"/>
<path d="M3.13613 14.9309C2.87113 14.9309 2.65613 14.7159 2.65613 14.4509V14.1309C2.65613 13.8659 2.87113 13.6509 3.13613 13.6509C3.40113 13.6509 3.61613 13.8659 3.61613 14.1309V14.4509C3.61613 14.7159 3.40113 14.9309 3.13613 14.9309Z" fill="#5A3DF9"/>
</svg>
