<svg width="430" height="228" viewBox="0 0 430 228" fill="none" xmlns="http://www.w3.org/2000/svg">
<path d="M133.835 53.7866H134.898C135.168 53.7866 135.388 54.0063 135.388 54.2761V63.7694C135.388 66.7686 137.017 68.6635 140.047 68.6635C143.078 68.6635 144.706 66.7686 144.706 63.7694V54.2761C144.706 54.0063 144.926 53.7866 145.197 53.7866H146.259C146.53 53.7866 146.75 54.0063 146.75 54.2761V63.7945C146.75 67.8792 144.505 70.4831 140.047 70.4831C135.589 70.4831 133.345 67.8541 133.345 63.8196V54.2761C133.338 54.0063 133.558 53.7866 133.835 53.7866ZM149.881 66.7184C150.038 66.5176 150.34 66.4988 150.522 66.6745C151.622 67.7412 153.27 68.6635 155.357 68.6635C158.287 68.6635 159.224 67.0886 159.224 65.8337C159.224 63.8635 157.231 63.3239 155.062 62.7341C152.427 62.0439 149.491 61.3098 149.491 58.0847C149.491 55.3804 151.905 53.5357 155.137 53.5357C157.457 53.5357 159.293 54.2447 160.645 55.4933C160.84 55.669 160.859 55.9702 160.689 56.171L160.048 56.9553C159.89 57.1498 159.601 57.1623 159.419 56.9929C158.218 55.8698 156.634 55.3553 154.986 55.3553C153.012 55.3553 151.61 56.4157 151.61 57.9592C151.61 59.6094 153.509 60.0988 155.602 60.6635C158.287 61.3788 161.343 62.2133 161.343 65.658C161.343 68.0423 159.714 70.4768 155.282 70.4768C152.628 70.4768 150.629 69.5419 149.271 68.1867C149.095 68.011 149.076 67.7286 149.233 67.5341L149.881 66.7184ZM163.776 54.2761C163.776 54.0063 163.996 53.7866 164.267 53.7866H169.391C174.49 53.7866 177.822 57.3506 177.822 62C177.822 66.6745 174.496 70.1882 169.391 70.1882H164.267C163.996 70.1882 163.776 69.9686 163.776 69.6988V54.2761ZM169.397 68.3686C173.39 68.3686 175.704 65.5137 175.704 62C175.704 58.4549 173.459 55.6063 169.397 55.6063H165.826V68.3686H169.397ZM198.276 64.24C198.276 60.7953 200.545 58.0157 204.167 58.0157C207.789 58.0157 210.058 60.7953 210.058 64.24C210.058 67.6847 207.789 70.4894 204.167 70.4894C200.545 70.4894 198.276 67.6784 198.276 64.24ZM208.109 64.24C208.109 61.8306 206.707 59.6659 204.167 59.6659C201.627 59.6659 200.2 61.8306 200.2 64.24C200.2 66.6745 201.627 68.8392 204.167 68.8392C206.707 68.8392 208.109 66.6745 208.109 64.24ZM211.831 55.0667C211.831 54.3765 212.397 53.8368 213.064 53.8368C213.755 53.8368 214.321 54.3765 214.321 55.0667C214.321 55.7568 213.755 56.3216 213.064 56.3216C212.397 56.3216 211.831 55.7506 211.831 55.0667ZM212.643 58.3106H213.504C213.774 58.3106 213.994 58.5302 213.994 58.8V69.6988C213.994 69.9686 213.774 70.1882 213.504 70.1882H212.643C212.372 70.1882 212.152 69.9686 212.152 69.6988V58.8C212.152 58.5302 212.372 58.3106 212.643 58.3106ZM224.645 62.4204C224.645 60.331 223.583 59.6659 221.986 59.6659C220.533 59.6659 219.15 60.5506 218.459 61.5106V69.6988C218.459 69.9686 218.238 70.1882 217.968 70.1882H217.107C216.836 70.1882 216.616 69.9686 216.616 69.6988V58.8C216.616 58.5302 216.836 58.3106 217.107 58.3106H217.968C218.238 58.3106 218.459 58.5302 218.459 58.8V60.0298C219.295 59.0447 220.923 58.0157 222.696 58.0157C225.186 58.0157 226.494 59.2706 226.494 61.8494V69.6925C226.494 69.9623 226.274 70.1819 226.004 70.1819H225.142C224.872 70.1819 224.652 69.9623 224.652 69.6925L224.645 62.4204ZM182.494 62C182.494 56.9553 186.216 53.5168 190.875 53.5168C193.635 53.5168 195.572 54.7153 196.88 56.3592C197.043 56.5663 196.987 56.8737 196.754 57.0055L195.836 57.5137C195.629 57.6329 195.365 57.5765 195.214 57.3945C194.239 56.1898 192.661 55.3427 190.875 55.3427C187.348 55.3427 184.613 58.0972 184.613 62.0063C184.613 65.8902 187.348 68.6698 190.875 68.6698C192.667 68.6698 194.245 67.8416 195.214 66.618C195.365 66.4298 195.622 66.3796 195.836 66.4925L196.767 67.0008C197.006 67.1325 197.062 67.4463 196.892 67.6533C195.534 69.3098 193.635 70.4894 190.875 70.4894C186.216 70.4831 182.494 67.0447 182.494 62Z" fill="#2774C9"/>
<path d="M111.539 78C120.394 78 127.573 70.8366 127.573 62C127.573 53.1634 120.394 46 111.539 46C102.685 46 95.5063 53.1634 95.5063 62C95.5063 70.8366 102.685 78 111.539 78Z" fill="#2774C9"/>
<path d="M108.534 73.1247C108.534 73.5011 108.239 73.7145 107.874 73.6015C103.026 72.058 99.5115 67.5215 99.5115 62.1694C99.5115 56.8172 103.026 52.2807 107.874 50.7372C108.239 50.6243 108.534 50.8376 108.534 51.2141V52.1427C108.534 52.3937 108.339 52.6886 108.1 52.7702C104.265 54.1756 101.517 57.8525 101.517 62.1631C101.517 66.4737 104.265 70.1505 108.1 71.556C108.339 71.6439 108.534 71.9325 108.534 72.1835V73.1247Z" fill="white"/>
<path d="M112.539 69.6674C112.539 69.9435 112.313 70.1694 112.036 70.1694H111.036C110.76 70.1694 110.533 69.9435 110.533 69.6674V68.0863C108.345 67.7914 107.276 66.5678 106.987 64.9051C106.937 64.6227 107.163 64.3655 107.453 64.3655H108.597C108.836 64.3655 109.037 64.5349 109.087 64.7733C109.301 65.7647 109.873 66.5239 111.627 66.5239C112.923 66.5239 113.841 65.8023 113.841 64.7231C113.841 63.6439 113.3 63.2361 111.401 62.9223C108.597 62.5459 107.27 61.6988 107.27 59.5027C107.27 57.8086 108.553 56.491 110.54 56.2086V54.6588C110.54 54.3827 110.766 54.1568 111.043 54.1568H112.042C112.319 54.1568 112.545 54.3827 112.545 54.6588V56.2525C114.161 56.5412 115.186 57.4572 115.519 58.9757C115.582 59.2643 115.356 59.5341 115.06 59.5341H114.004C113.778 59.5341 113.589 59.3835 113.52 59.1639C113.237 58.1976 112.545 57.7835 111.344 57.7835C110.018 57.7835 109.332 58.4235 109.332 59.3208C109.332 60.2682 109.722 60.7451 111.759 61.04C114.513 61.4165 115.934 62.2008 115.934 64.5412C115.934 66.3168 114.614 67.7537 112.545 68.0863V69.6674H112.539Z" fill="white"/>
<path d="M115.205 73.6015C114.84 73.7145 114.545 73.5011 114.545 73.1247V72.196C114.545 71.92 114.715 71.6627 114.979 71.5686C118.814 70.1631 121.562 66.4862 121.562 62.1756C121.562 57.8651 118.814 54.1882 114.979 52.7827C114.74 52.6949 114.545 52.4062 114.545 52.1553V51.2266C114.545 50.8502 114.84 50.6306 115.205 50.7498C120.053 52.2933 123.567 56.8298 123.567 62.1819C123.561 67.5215 120.053 72.0517 115.205 73.6015Z" fill="white"/>
<g clip-path="url(#clip0_1_812)">
<path d="M333.835 67.3221C330.897 79.1079 318.958 86.2805 307.17 83.3415C295.386 80.4033 288.212 68.4654 291.152 56.6805C294.09 44.8934 306.028 37.7202 317.813 40.6585C329.601 43.5967 336.774 55.5359 333.835 67.3223L333.835 67.3221H333.835Z" fill="#F79723"/>
<path d="M322.196 58.8656C322.634 55.9378 320.404 54.3641 317.356 53.3142L318.345 49.3484L315.931 48.7468L314.968 52.6083C314.333 52.45 313.681 52.3008 313.034 52.153L314.003 48.266L311.59 47.6645L310.601 51.6291C310.076 51.5095 309.56 51.3913 309.059 51.2668L309.062 51.2543L305.732 50.423L305.09 53.0014C305.09 53.0014 306.881 53.412 306.844 53.4372C307.821 53.6812 307.998 54.3284 307.969 54.8413L306.842 59.3593C306.91 59.3764 306.997 59.4012 307.093 59.4399C307.013 59.4199 306.927 59.3981 306.838 59.3768L305.259 65.7059C305.14 66.0029 304.837 66.4486 304.153 66.2794C304.177 66.3144 302.398 65.8415 302.398 65.8415L301.199 68.6049L304.341 69.3881C304.926 69.5346 305.499 69.688 306.063 69.8322L305.064 73.8435L307.475 74.4451L308.465 70.4763C309.124 70.6551 309.763 70.8201 310.389 70.9756L309.403 74.9256L311.817 75.5272L312.816 71.5234C316.933 72.3025 320.029 71.9883 321.332 68.2649C322.382 65.267 321.28 63.5379 319.114 62.4103C320.691 62.0465 321.88 61.009 322.197 58.8659L322.196 58.8653L322.196 58.8656ZM316.679 66.6C315.933 69.5979 310.885 67.9773 309.249 67.571L310.574 62.2566C312.211 62.6652 317.459 63.4736 316.679 66.6H316.679ZM317.426 58.8221C316.745 61.549 312.544 60.1636 311.181 59.8239L312.383 55.0041C313.746 55.3438 318.135 55.9778 317.426 58.8221H317.426Z" fill="white"/>
</g>
<path d="M35.2505 186C45.1916 186 53.2505 177.941 53.2505 168C53.2505 158.059 45.1916 150 35.2505 150C25.3094 150 17.2505 158.059 17.2505 168C17.2505 177.941 25.3094 186 35.2505 186Z" fill="#27A17B"/>
<path d="M37.1691 169.661V169.658C37.0446 169.667 36.4022 169.704 34.9726 169.704C33.8295 169.704 33.0279 169.673 32.7443 169.658V169.661C28.3485 169.467 25.0697 168.703 25.0697 167.786C25.0697 166.871 28.3514 166.104 32.7443 165.911V168.9C33.0308 168.92 33.8556 168.969 34.9929 168.969C36.3588 168.969 37.0417 168.912 37.1691 168.9V165.913C41.5562 166.11 44.8263 166.874 44.8263 167.789C44.8263 168.703 41.5533 169.467 37.1691 169.664M37.1691 165.604V162.93H43.2896V158.852H26.6266V162.93H32.7472V165.604C27.7726 165.832 24.0337 166.816 24.0337 167.997C24.0337 169.178 27.7755 170.162 32.7472 170.393V178.965H37.172V170.393C42.1379 170.165 45.871 169.181 45.871 168C45.871 166.822 42.1379 165.835 37.172 165.607" fill="white"/>
<path d="M68.5403 159.967V164.29H72.7423V167.534H68.5114V174.112C68.5114 175.565 69.313 176.274 70.4879 176.274C71.0754 176.274 71.7555 176.088 72.3111 175.811L73.3616 179.023C72.2821 179.454 71.385 179.639 70.242 179.671C66.9371 179.795 64.7754 177.912 64.7754 174.112V167.534H61.9336V164.29H64.7754V160.369L68.5403 159.967ZM140.983 164.087L141.261 165.847C142.436 163.963 144.01 163.685 145.555 163.685C147.13 163.685 148.643 164.302 149.477 165.135L147.778 168.408C147.005 167.76 146.296 167.418 145.061 167.418C143.084 167.418 141.261 168.469 141.261 171.279V179.309H137.493V164.082L140.983 164.087ZM131.749 169.924C131.503 167.948 129.957 166.958 127.796 166.958C125.758 166.958 124.089 167.948 123.533 169.924H131.749ZM123.472 173.044C123.718 174.928 125.356 176.288 128.013 176.288C129.402 176.288 131.225 175.761 132.09 174.867L134.498 177.246C132.892 178.913 130.267 179.717 127.949 179.717C122.7 179.717 119.577 176.473 119.577 171.594C119.577 166.961 122.728 163.624 127.671 163.624C132.767 163.624 135.951 166.776 135.363 173.044H123.472ZM106.855 157.692V166.154C108.216 164.394 109.882 163.867 111.613 163.867C115.936 163.867 117.852 166.802 117.852 171.282V179.312H114.084V171.313C114.084 168.532 112.632 167.36 110.623 167.36C108.398 167.36 106.855 169.244 106.855 171.531V179.315H103.088V157.695L106.855 157.692ZM96.8484 159.793V164.116H101.05V167.36H96.8195V173.938C96.8195 175.391 97.624 176.1 98.796 176.1C99.3834 176.1 100.063 175.915 100.619 175.637L101.67 178.849C100.59 179.28 99.6931 179.466 98.55 179.497C95.2452 179.622 93.0834 177.735 93.0834 173.938V167.36H90.2416V164.116H93.0834V160.195L96.8484 159.793ZM86.4391 169.924C86.1931 167.948 84.6477 166.958 82.486 166.958C80.4487 166.958 78.7789 167.948 78.2233 169.924H86.4391ZM78.1625 173.044C78.4085 174.928 80.0465 176.288 82.7031 176.288C84.0921 176.288 85.9153 175.761 86.7805 174.867L89.1883 177.246C87.5822 178.913 84.9574 179.717 82.6394 179.717C77.387 179.717 74.2674 176.473 74.2674 171.594C74.2674 166.961 77.4188 163.624 82.3587 163.624C87.4548 163.624 90.6352 166.776 90.0506 173.044H78.1625Z" fill="#27A17B"/>
<g clip-path="url(#clip1_1_812)">
<path d="M225.512 164.808L233.264 157.041L241.021 164.812L245.532 160.292L233.264 148L221.001 160.288L225.512 164.808Z" fill="#EFAB13"/>
<path d="M222.326 167.999L217.815 163.479L213.304 168L217.815 172.519L222.326 167.999Z" fill="#EFAB13"/>
<path d="M225.512 171.192L233.265 178.959L241.021 171.188L245.534 175.705L245.532 175.708L233.265 188L221.001 175.712L220.994 175.706L225.512 171.192Z" fill="#EFAB13"/>
<path d="M248.714 172.522L253.225 168.001L248.714 163.482L244.203 168.002L248.714 172.522Z" fill="#EFAB13"/>
<path d="M237.84 167.998H237.842L233.265 163.411L229.882 166.801H229.881L229.493 167.19L228.691 167.994L228.685 168L228.691 168.006L233.265 172.589L237.842 168.002L237.844 168L237.84 167.998Z" fill="#EFAB13"/>
<path d="M260.258 157.692H270.069C272.504 157.692 274.345 158.319 275.593 159.571C276.559 160.541 277.042 161.743 277.042 163.177V163.238C277.042 163.843 276.967 164.379 276.816 164.843C276.666 165.308 276.466 165.727 276.215 166.101C275.965 166.475 275.674 166.803 275.344 167.086C275.013 167.369 274.658 167.611 274.277 167.813C275.501 168.278 276.465 168.909 277.167 169.707C277.869 170.505 278.221 171.611 278.221 173.025V173.085C278.221 174.055 278.035 174.903 277.663 175.631C277.29 176.358 276.757 176.964 276.062 177.449C275.368 177.934 274.532 178.298 273.556 178.54C272.58 178.782 271.498 178.903 270.311 178.903H260.258V157.692ZM269.088 166.268C270.116 166.268 270.933 166.091 271.537 165.737C272.142 165.384 272.444 164.813 272.444 164.025V163.965C272.444 163.258 272.182 162.718 271.658 162.344C271.134 161.97 270.378 161.783 269.39 161.783H264.793V166.268H269.088ZM270.328 174.813C271.356 174.813 272.162 174.627 272.747 174.253C273.332 173.879 273.624 173.298 273.624 172.51V172.45C273.624 171.743 273.352 171.182 272.808 170.768C272.263 170.354 271.386 170.147 270.177 170.147H264.793V174.813L270.328 174.813Z" fill="#EFAB13"/>
<path d="M284.064 157.692H288.722V178.904H284.064V157.692Z" fill="#EFAB13"/>
<path d="M295.776 157.692H300.07L309.989 170.753V157.692H314.586V178.904H310.625L300.372 165.42V178.904H295.776V157.692Z" fill="#EFAB13"/>
<path d="M328.686 157.541H332.98L342.053 178.904H337.184L335.248 174.147H326.297L324.361 178.904H319.613L328.686 157.541ZM333.585 170.025L330.772 163.147L327.961 170.025H333.585Z" fill="#EFAB13"/>
<path d="M347.081 157.692H351.375L361.294 170.753V157.692H365.891V178.904H361.93L351.677 165.42V178.904H347.081V157.692Z" fill="#EFAB13"/>
<path d="M382.652 179.267C381.099 179.267 379.658 178.984 378.327 178.419C376.996 177.854 375.847 177.081 374.88 176.101C373.912 175.121 373.155 173.965 372.612 172.631C372.067 171.298 371.795 169.874 371.795 168.358V168.298C371.795 166.783 372.067 165.364 372.612 164.041C373.156 162.718 373.912 161.556 374.88 160.556C375.847 159.556 377.007 158.768 378.357 158.192C379.708 157.617 381.201 157.329 382.833 157.329C383.821 157.329 384.723 157.41 385.539 157.571C386.356 157.733 387.097 157.955 387.762 158.238C388.428 158.521 389.042 158.864 389.608 159.268C390.171 159.672 390.696 160.116 391.18 160.601L388.217 164.025C387.389 163.278 386.548 162.692 385.691 162.268C384.834 161.844 383.871 161.632 382.803 161.632C381.916 161.632 381.094 161.804 380.338 162.147C379.582 162.49 378.932 162.965 378.387 163.571C377.844 164.177 377.42 164.879 377.117 165.677C376.815 166.475 376.664 167.328 376.664 168.237V168.298C376.664 169.207 376.815 170.066 377.117 170.873C377.42 171.682 377.838 172.388 378.373 172.994C378.906 173.6 379.552 174.081 380.308 174.434C381.064 174.788 381.896 174.964 382.803 174.964C384.013 174.964 385.035 174.742 385.872 174.298C386.709 173.854 387.541 173.247 388.367 172.479L391.331 175.479C390.787 176.065 390.221 176.591 389.638 177.055C389.053 177.52 388.413 177.919 387.717 178.252C387.022 178.585 386.26 178.838 385.434 179.01C384.607 179.181 383.68 179.267 382.652 179.267Z" fill="#EFAB13"/>
<path d="M396.812 157.692H412.75V161.844H401.409V166.147H411.389V170.298H401.409V174.753H412.902V178.904H396.812V157.692Z" fill="#EFAB13"/>
</g>
<path d="M0 1H430V-1H0V1ZM430 227H0V229H430V227Z" fill="url(#paint0_linear_1_812)" mask="url(#path-1-inside-1_1_812)"/>
<defs>
<linearGradient id="paint0_linear_1_812" x1="-1.80211e-06" y1="114" x2="430" y2="114" gradientUnits="userSpaceOnUse">
<stop stop-color="white" stop-opacity="0"/>
<stop offset="0.526042" stop-color="#B5B4FF"/>
<stop offset="1" stop-color="white" stop-opacity="0"/>
</linearGradient>
<clipPath id="clip0_1_812">
<rect width="44" height="44" fill="white" transform="translate(290.494 40)"/>
</clipPath>
<clipPath id="clip1_1_812">
<rect width="199.273" height="40" fill="white" transform="translate(213.477 148)"/>
</clipPath>
</defs>
</svg>
